<?xml version="1.0" encoding="UTF-8" standalone="no"?>
<!-- Created with Inkscape (http://www.inkscape.org/) -->
<svg
   xmlns:svg="http://www.w3.org/2000/svg"
   xmlns="http://www.w3.org/2000/svg"
   version="1.0"
   width="400.00006"
   height="299.99985"
   id="svg2933">
  <defs
     id="defs2935">
    <clipPath
       id="clipPath153">
      <path
         d="M 426.42,239.3 L 491.76,239.3 L 491.76,251.54 L 426.42,251.54 L 426.42,239.3 z"
         id="path155" />
    </clipPath>
    <clipPath
       id="clipPath129">
      <path
         d="M 426.42,340.52 L 534.06,340.52 L 534.06,352.76 L 426.42,352.76 L 426.42,340.52 z"
         id="path131" />
    </clipPath>
  </defs>
  <g
     id="g3585">
    <path
       d="M 392.49997,7.500048 L 7.50005,7.500048 L 7.50005,292.49981 L 392.49997,292.49981 L 392.49997,7.500048 z"
       id="path167"
       style="fill:#fe9900;fill-opacity:1;fill-rule:evenodd;stroke:#000000;stroke-width:15.00009537;stroke-linecap:round;stroke-linejoin:miter;stroke-miterlimit:10;stroke-dasharray:none;stroke-opacity:1" />
    <g
       transform="matrix(1.3335691,0,0,-1.2499994,14.59326,149.99993)"
       id="g169">
      <path
         d="M 0,0 L 283.38,0"
         id="path171"
         style="fill:none;stroke:#000000;stroke-width:11.61792469;stroke-linecap:butt;stroke-linejoin:round;stroke-miterlimit:10;stroke-dasharray:none;stroke-opacity:1" />
    </g>
    <path
       d="M 151.98164,78.568493 L 151.98164,76.091489 C 157.36024,74.534568 161.08753,73.08376 163.16352,71.739045 C 165.23945,70.39445 167.03232,68.342078 168.54214,65.58194 C 170.0519,62.821921 170.80679,60.026448 170.80683,57.195522 C 170.80679,53.279578 169.37957,49.917945 166.52517,47.110605 C 163.67068,44.303414 160.12032,42.899788 155.87407,42.899698 C 149.26872,42.899788 143.65419,46.39117 139.03047,53.373873 L 136.41193,52.45384 C 139.80895,44.57471 144.16138,38.653507 149.46925,34.690222 C 154.77709,30.727115 160.68649,28.745522 167.19749,28.745423 C 173.84996,28.745522 179.33474,30.774298 183.65185,34.831759 C 187.96884,38.88941 190.12737,43.631091 190.12743,49.056813 C 190.12737,52.595457 189.12477,56.004282 187.11964,59.283278 C 185.11439,62.562423 181.96508,65.45225 177.67166,67.952781 C 183.19178,70.64215 187.40267,73.95661 190.30435,77.89616 C 193.20592,81.83582 194.65674,86.778009 194.6568,92.722768 C 194.65674,102.72516 191.0356,111.22951 183.79338,118.23587 C 176.55106,125.24224 166.84359,128.74542 154.67095,128.74542 C 146.55581,128.74542 140.63462,127.40076 136.90733,124.71145 C 134.21801,122.82421 132.87336,120.3944 132.87336,117.42199 C 132.87336,115.25168 133.65184,113.39983 135.20882,111.86644 C 136.76578,110.33307 138.55865,109.56638 140.58744,109.56636 C 142.14441,109.56638 143.60701,109.89665 144.97527,110.55717 C 145.73015,110.93463 148.40766,112.99879 153.00783,116.74966 C 157.60794,120.50055 161.91319,122.37599 165.9236,122.37599 C 169.41495,122.37599 172.41094,120.99596 174.91157,118.23587 C 177.41211,115.47579 178.66241,111.97261 178.66245,107.72631 C 178.66241,101.26254 176.39773,95.305955 171.8684,89.856527 C 167.339,84.407178 160.71009,80.6445 151.98164,78.568493 L 151.98164,78.568493 z M 224.45156,78.568493 L 224.45156,76.091489 C 229.83016,74.534568 233.55745,73.08376 235.63344,71.739045 C 237.70937,70.39445 239.50224,68.342078 241.01207,65.58194 C 242.52182,62.821921 243.27671,60.026448 243.27675,57.195522 C 243.27671,53.279578 241.84949,49.917945 238.99508,47.110605 C 236.1406,44.303414 232.59024,42.899788 228.34399,42.899698 C 221.73863,42.899788 216.12411,46.39117 211.50039,53.373873 L 208.88185,52.45384 C 212.27887,44.57471 216.6313,38.653507 221.93917,34.690222 C 227.247,30.727115 233.15641,28.745522 239.66741,28.745423 C 246.31988,28.745522 251.80465,30.774298 256.12176,34.831759 C 260.43876,38.88941 262.59729,43.631091 262.59735,49.056813 C 262.59729,52.595457 261.59469,56.004282 259.58956,59.283278 C 257.58432,62.562423 254.43499,65.45225 250.14158,67.952781 C 255.6617,70.64215 259.87259,73.95661 262.77427,77.89616 C 265.67584,81.83582 267.12665,86.778009 267.12671,92.722768 C 267.12665,102.72516 263.50552,111.22951 256.2633,118.23587 C 249.02099,125.24224 239.31351,128.74542 227.14087,128.74542 C 219.02574,128.74542 213.10453,127.40076 209.37725,124.71145 C 206.68793,122.82421 205.34328,120.3944 205.34328,117.42199 C 205.34328,115.25168 206.12176,113.39983 207.67873,111.86644 C 209.2357,110.33307 211.02858,109.56638 213.05736,109.56636 C 214.61432,109.56638 216.07693,109.89665 217.44519,110.55717 C 218.20007,110.93463 220.87758,112.99879 225.47775,116.74966 C 230.07786,120.50055 234.38311,122.37599 238.39353,122.37599 C 241.88487,122.37599 244.88086,120.99596 247.38149,118.23587 C 249.88203,115.47579 251.13233,111.97261 251.13238,107.72631 C 251.13233,101.26254 248.86764,95.305955 244.33832,89.856527 C 239.80891,84.407178 233.18,80.6445 224.45156,78.568493 L 224.45156,78.568493 z"
       id="flowRoot3439"
       style="font-size:100px;font-style:normal;font-variant:normal;font-weight:bold;font-stretch:normal;text-align:start;line-height:125%;writing-mode:lr-tb;text-anchor:start;fill:#000000;fill-opacity:1;stroke:none;stroke-width:1px;stroke-linecap:butt;stroke-linejoin:miter;stroke-opacity:1;font-family:Arial;-inkscape-font-specification:Arial Bold" />
    <path
       d="M 101.66317,171.2245 L 101.66317,249.70998 C 101.66312,255.60762 101.92262,259.37029 102.44165,260.99803 C 102.96059,262.62578 104.04576,263.95863 105.69713,264.99661 C 107.34842,266.03459 109.99055,266.55358 113.62353,266.55358 L 115.81744,266.55358 L 115.81744,269.17212 L 65.286666,269.17212 L 65.286666,266.55358 L 67.834439,266.55358 C 71.939162,266.55358 74.864374,266.08177 76.610085,265.13815 C 78.355756,264.19454 79.535277,262.89706 80.148659,261.24573 C 80.761981,259.5944 81.068662,255.74916 81.068692,249.70998 L 81.068692,199.95769 C 81.068662,195.52275 80.856346,192.75087 80.431744,191.64204 C 80.007092,190.53337 79.216808,189.58976 78.060903,188.81119 C 76.904948,188.03279 75.572091,187.64354 74.062322,187.64346 C 71.656077,187.64354 68.730855,188.39844 65.286666,189.90815 L 64.01278,187.36038 L 99.327711,171.2245 L 101.66317,171.2245 z M 186.94271,269.17212 L 130.46713,269.17212 L 130.46713,267.61515 C 147.78251,246.99711 158.29206,233.12593 161.99579,226.00157 C 165.69945,218.87729 167.55131,211.91811 167.55135,205.12399 C 167.55131,200.17007 166.01792,196.05354 162.9512,192.77439 C 159.88441,189.49539 156.13352,187.85586 151.69855,187.85578 C 144.43267,187.85586 138.79455,191.48879 134.78418,198.75457 L 132.16564,197.83454 C 134.7134,188.77589 138.58224,182.0762 143.77215,177.73547 C 148.96203,173.39491 154.954,171.2246 161.74809,171.2245 C 166.60769,171.2246 171.04269,172.35694 175.05312,174.62152 C 179.06344,176.8863 182.20097,179.98845 184.46571,183.92797 C 186.73034,187.86765 187.86268,191.55955 187.86274,195.00368 C 187.86268,201.27882 186.11699,207.64824 182.62566,214.11197 C 177.86033,222.84049 167.45694,235.01315 151.41547,250.63002 L 172.15148,250.63002 C 177.24698,250.63004 180.56144,250.41772 182.09487,249.99307 C 183.6282,249.56847 184.89028,248.84895 185.88114,247.83454 C 186.87188,246.82017 188.16935,244.68524 189.77356,241.42973 L 192.32134,241.42973 L 186.94271,269.17212 z M 266.56054,221.1891 C 266.56047,230.76687 265.21581,239.70765 262.52657,248.01147 C 260.92236,253.10703 258.76383,257.28254 256.05099,260.53801 C 253.33802,263.7935 250.25948,266.37666 246.81532,268.28748 C 243.37107,270.19831 239.62019,271.15372 235.56267,271.15372 C 230.9389,271.15372 226.7634,269.9742 223.03612,267.61515 C 219.30881,265.25611 216.00615,261.88268 213.12813,257.49484 C 211.05216,254.28655 209.23569,250.01668 207.67873,244.68522 C 205.64994,237.46656 204.63556,230.01198 204.63557,222.32145 C 204.63556,211.89452 206.09816,202.3168 209.02338,193.58826 C 211.42961,186.36965 215.08612,180.8377 219.99296,176.99236 C 224.89974,173.14722 230.08964,171.2246 235.56267,171.2245 C 241.12998,171.2246 246.33167,173.12362 251.16776,176.9216 C 256.00375,180.71975 259.55411,185.82708 261.81886,192.24361 C 264.97991,201.0665 266.56047,210.715 266.56054,221.1891 L 266.56054,221.1891 z M 244.76295,221.04757 C 244.76291,204.25121 244.66854,194.46118 244.47986,191.67744 C 244.00801,185.11936 242.87567,180.68436 241.08283,178.3724 C 239.90327,176.86271 237.99245,176.10782 235.35035,176.10773 C 233.32154,176.10782 231.71738,176.67399 230.53789,177.80623 C 228.79217,179.45766 227.61265,182.37107 226.99933,186.54651 C 226.38595,190.7221 226.07928,205.2892 226.07929,230.24785 C 226.07928,243.83598 226.55108,252.9419 227.49473,257.56561 C 228.20241,260.91547 229.2168,263.15656 230.53789,264.28889 C 231.85893,265.42124 233.60462,265.98741 235.77498,265.98741 C 238.13399,265.98741 239.90327,265.23252 241.08283,263.72272 C 243.06439,261.08059 244.19674,256.99945 244.47986,251.47927 L 244.76295,221.04757 z M 293.31214,221.04757 L 293.31214,218.57056 C 298.69074,217.01364 302.41803,215.56283 304.49402,214.21812 C 306.56995,212.87352 308.36282,210.82115 309.87265,208.06101 C 311.3824,205.301 312.13729,202.50552 312.13734,199.6746 C 312.13729,195.75865 310.71007,192.39702 307.85566,189.58968 C 305.00118,186.78249 301.45082,185.37886 297.20457,185.37877 C 290.59921,185.37886 284.98469,188.87024 280.36097,195.85295 L 277.74243,194.93292 C 281.13945,187.05379 285.49188,181.13258 290.79975,177.1693 C 296.10758,173.20619 302.017,171.2246 308.528,171.2245 C 315.18046,171.2246 320.66523,173.25337 324.98234,177.31083 C 329.29934,181.36848 331.45787,186.11017 331.45793,191.53589 C 331.45787,195.07453 330.45528,198.48336 328.45014,201.76235 C 326.4449,205.0415 323.29557,207.93133 319.00216,210.43186 C 324.52228,213.12123 328.73317,216.43569 331.63486,220.37524 C 334.53643,224.31489 335.98723,229.25708 335.98729,235.20184 C 335.98723,245.20423 332.3661,253.70858 325.12389,260.71494 C 317.88157,267.72131 308.1741,271.22449 296.00145,271.22449 C 287.88632,271.22449 281.96512,269.87984 278.23783,267.19053 C 275.54851,265.30329 274.20386,262.87348 274.20386,259.90106 C 274.20386,257.73076 274.98234,255.87891 276.53931,254.34551 C 278.09628,252.81215 279.88916,252.04546 281.91794,252.04544 C 283.4749,252.04546 284.93751,252.37573 286.30577,253.03624 C 287.06065,253.4137 289.73816,255.47787 294.33833,259.22874 C 298.93844,262.97963 303.24369,264.85507 307.25411,264.85507 C 310.74546,264.85507 313.74144,263.47503 316.24207,260.71494 C 318.74262,257.95486 319.99291,254.45168 319.99296,250.20538 C 319.99291,243.74162 317.72822,237.78503 313.19891,232.3356 C 308.66949,226.88625 302.04058,223.12358 293.31214,221.04757 L 293.31214,221.04757 z"
       id="flowRoot3550"
       style="font-size:100px;font-style:normal;font-variant:normal;font-weight:bold;font-stretch:normal;text-align:start;line-height:125%;writing-mode:lr-tb;text-anchor:start;fill:#000000;fill-opacity:1;stroke:none;stroke-width:1px;stroke-linecap:butt;stroke-linejoin:miter;stroke-opacity:1;font-family:Arial;-inkscape-font-specification:Arial Bold" />
  </g>
</svg>
