<?xml version="1.0" encoding="UTF-8" standalone="no"?>
<!-- Created with Inkscape (http://www.inkscape.org/) -->
<svg
   xmlns:svg="http://www.w3.org/2000/svg"
   xmlns="http://www.w3.org/2000/svg"
   version="1.0"
   width="430.99536"
   height="430.49884"
   id="svg2">
  <defs
     id="defs4" />
  <g
     transform="translate(-174.01279,-379.66605)"
     id="layer1">
    <path
       d="M 281.50989,702.66431 L 174.01279,595.16373 L 281.76163,487.41489 L 389.51047,379.66605 L 497.25931,487.41489 L 605.00815,595.16373 L 497.51105,702.66431 C 438.38765,761.78963 389.78739,810.16489 389.51047,810.16489 C 389.23355,810.16489 340.63329,761.78963 281.50989,702.66431 z M 402.87326,787.24061 C 407.91826,782.14713 410.45049,778.87686 409.96178,778.08611 C 409.47534,777.29903 409.61529,777.11164 410.35029,777.56589 C 411.02562,777.98327 414.21199,775.67706 418.08127,771.9704 C 421.70144,768.50237 425.1915,765.16505 425.83694,764.55412 C 426.48238,763.9432 428.67448,761.6932 430.70828,759.55412 C 432.74208,757.41505 436.67958,753.4169 439.45828,750.66936 C 442.23698,747.92181 444.51047,745.33431 444.51047,744.91936 C 444.51047,744.5044 443.39959,744.16489 442.04185,744.16489 C 440.25014,744.16489 439.73226,744.5793 440.1532,745.67623 C 440.54532,746.6981 440.27208,747.01064 439.3095,746.64127 C 438.45181,746.31214 437.34653,747.1027 436.52918,748.62993 C 435.78301,750.02416 434.87906,751.16489 434.52039,751.16489 C 433.09383,751.16489 424.46257,760.27837 425.02589,761.18984 C 425.35733,761.72612 424.96655,762.16489 424.15749,762.16489 C 422.75532,762.16489 392.51047,791.79891 392.51047,793.17276 C 392.51047,793.99145 393.64358,795.16489 394.43411,795.16489 C 394.75879,795.16489 398.5564,791.59897 402.87326,787.24061 z M 488.51111,693.66425 L 587.00793,595.16362 L 488.2592,496.41489 L 389.51047,397.66616 L 290.76174,496.41489 L 192.01301,595.16362 L 290.50983,693.66425 C 344.68309,747.8396 389.23338,792.16489 389.51047,792.16489 C 389.78756,792.16489 434.33785,747.8396 488.51111,693.66425 z M 292.00982,692.16424 L 195.01305,595.1636 L 292.26176,497.91489 L 389.51047,400.66618 L 486.75918,497.91489 L 584.00789,595.1636 L 487.01112,692.16424 C 433.66289,745.5146 389.7876,789.16489 389.51047,789.16489 C 389.23334,789.16489 345.35805,745.5146 292.00982,692.16424 z M 406.51047,757.66489 L 406.51047,752.16489 L 397.43374,752.16489 L 388.35702,752.16489 L 391.68374,749.48603 C 402.38429,740.86935 406.51047,735.07223 406.51047,728.65507 C 406.51047,720.47013 400.68033,715.17493 391.6616,715.16863 C 384.93715,715.16393 380.0804,717.43227 376.94941,722.03994 C 373.27433,727.44831 373.6993,728.77081 379.56445,730.17784 C 382.34413,730.84468 384.73033,731.22706 384.86711,731.02758 C 385.00388,730.8281 385.90803,729.39982 386.87633,727.85362 C 389.29086,723.99804 392.892,724.45798 393.30592,728.67482 C 393.70756,732.76651 389.11539,739.49171 380.42717,747.53567 C 374.12201,753.37328 373.51047,754.28837 373.51047,757.88552 C 373.51047,760.05584 373.81047,762.13156 374.17714,762.49822 C 374.5438,762.86489 381.9688,763.16489 390.67714,763.16489 L 406.51047,763.16489 L 406.51047,757.66489 z M 369.28796,676.60819 C 370.5337,675.73564 371.51047,675.51589 371.51047,676.10819 C 371.51047,676.68937 372.63547,677.16489 374.01047,677.16489 L 376.51047,677.16489 L 376.51047,666.16489 L 376.51047,655.16489 L 371.01047,655.16489 L 365.51047,655.16489 L 365.51047,659.16489 C 365.51047,662.1736 365.90907,663.16489 367.11888,663.16489 C 368.37149,663.16489 368.57704,663.77322 368.04812,665.91489 C 367.11991,669.67324 365.80212,670.85639 364.26047,669.31554 C 362.47213,667.52814 362.50869,641.76974 364.30211,639.97453 C 366.10678,638.16807 367.47526,640.52434 367.49516,645.47239 L 367.51047,649.27989 L 371.76047,648.97239 L 376.01047,648.66489 L 375.80203,644.22233 C 375.51661,638.13906 373.75589,634.34316 370.41928,632.61773 C 363.55556,629.06837 356.82137,632.54463 354.39793,640.88812 C 353.61444,643.58553 353.02151,650.01972 353.03582,655.66891 C 353.05762,664.26887 353.40849,666.37411 355.53582,670.66891 C 359.00148,677.66561 364.43066,680.01037 369.28796,676.60819 z M 420.5432,676.64796 C 424.15441,674.78053 426.51047,670.43773 426.51047,665.64881 C 426.51047,660.78966 425.34464,658.81293 417.87814,651.01212 C 411.31451,644.15462 410.4626,642.27943 412.96667,640.20124 C 415.01755,638.49916 416.51047,639.77254 416.51047,643.22391 C 416.51047,646.04285 416.6972,646.16489 421.01047,646.16489 C 423.94678,646.16489 425.50853,645.73053 425.50489,644.91489 C 425.48831,641.19721 423.07046,635.97243 420.28007,633.62448 C 417.6527,631.41369 416.42984,631.04649 413.15675,631.48551 C 407.5188,632.24172 404.35156,635.76328 403.75853,641.93511 C 403.12324,648.54668 405.28665,652.8764 412.1593,658.74788 C 416.88986,662.78933 417.57815,663.82945 417.31461,666.53847 C 417.08519,668.89684 416.51914,669.66489 415.01047,669.66489 C 413.48501,669.66489 412.93612,668.89377 412.69711,666.41489 C 412.39521,663.28367 412.22161,663.16489 407.94711,663.16489 C 402.81404,663.16489 402.39887,664.34626 405.13168,671.17623 C 407.69829,677.5908 414.23323,679.91098 420.5432,676.64796 z M 386.52412,674.41489 C 386.54931,669.34333 387.60371,667.16489 390.03326,667.16489 C 392.02234,667.16489 392.41304,667.82103 393.01047,672.16489 L 393.69815,677.16489 L 398.10431,677.16489 C 400.5277,677.16489 402.52734,676.82739 402.54795,676.41489 C 402.56856,676.00239 401.34196,665.85915 399.82216,653.87435 L 397.0589,632.0838 L 390.53469,632.37435 L 384.01047,632.66489 L 381.32654,652.16489 C 377.68585,678.61628 377.61711,677.16489 382.51047,677.16489 C 386.20413,677.16489 386.51152,676.95428 386.52412,674.41489 z M 388.59808,657.41489 C 388.64626,655.90239 389.03613,652.41489 389.46446,649.66489 C 390.24266,644.66862 390.24335,644.66787 390.38786,648.66489 C 390.4674,650.86489 390.81141,654.35239 391.15232,656.41489 C 391.65707,659.46865 391.46937,660.16489 390.14131,660.16489 C 389.00764,660.16489 388.53718,659.32654 388.59808,657.41489 z M 467.29042,616.08656 C 467.95976,610.29667 468.54374,609.16489 470.86192,609.16489 C 472.82625,609.16489 473.31371,609.88153 474.09287,613.91489 C 475.0021,618.62155 475.04925,618.6677 479.26047,618.97239 C 484.3999,619.34424 484.27229,621.57497 480.67955,594.16489 L 477.99254,573.66489 L 471.51257,573.66489 L 465.03261,573.66489 L 462.31479,593.16489 C 458.81738,618.25841 458.81808,617.92915 462.26047,618.44071 C 466.3417,619.0472 466.98285,618.74713 467.29042,616.08656 z M 469.84749,594.14206 C 470.37035,590.2795 470.8956,587.242 471.01472,587.39206 C 471.13384,587.54211 471.50219,590.70239 471.83326,594.41489 C 472.36982,600.43151 472.243,601.16489 470.66603,601.16489 C 469.05149,601.16489 468.97994,600.55104 469.84749,594.14206 z M 504.20905,616.54061 C 510.11869,612.12843 510.93831,602.50182 505.83853,597.40205 C 503.68275,595.24626 503.53037,594.73326 504.8298,594.00606 C 507.01994,592.78039 508.81437,586.59834 508.09422,582.75964 C 506.94299,576.62302 501.12264,573.16489 491.94537,573.16489 L 486.51047,573.16489 L 486.51047,596.27419 L 486.51047,619.38349 L 493.95974,619.00732 C 499.54282,618.72539 502.11047,618.10743 504.20905,616.54061 z M 495.51047,605.12971 C 495.51047,599.4044 495.61316,599.14948 497.51047,600.16489 C 499.04076,600.98388 499.51047,602.25871 499.51047,605.59308 C 499.51047,609.51548 498.45016,611.16489 495.92868,611.16489 C 495.69867,611.16489 495.51047,608.44906 495.51047,605.12971 z M 495.51047,586.16489 C 495.51047,581.08531 496.1555,580.20992 498.31047,582.36489 C 500.5369,584.59132 499.48588,591.16489 496.90348,591.16489 C 495.89853,591.16489 495.51047,589.77199 495.51047,586.16489 z M 532.51047,615.16489 L 532.51047,611.16489 L 527.61209,611.16489 L 522.71371,611.16489 L 521.98255,592.11372 L 521.25139,573.06255 L 517.13093,573.36372 L 513.01047,573.66489 L 512.7417,596.41489 L 512.47292,619.16489 L 522.4917,619.16489 L 532.51047,619.16489 L 532.51047,615.16489 z M 555.51047,615.16489 L 555.51047,611.16489 L 550.01047,611.16489 L 544.51047,611.16489 L 544.51047,605.66489 L 544.51047,600.16489 L 548.51047,600.16489 C 552.51047,600.16489 552.51047,600.16489 552.51047,596.16489 C 552.51047,592.16489 552.51047,592.16489 548.51047,592.16489 L 544.51047,592.16489 L 544.51047,587.16489 L 544.51047,582.16489 L 549.51047,582.16489 L 554.51047,582.16489 L 554.51047,578.16489 L 554.51047,574.16489 L 545.01047,574.16489 L 535.51047,574.16489 L 535.51047,596.66489 L 535.51047,619.16489 L 545.51047,619.16489 L 555.51047,619.16489 L 555.51047,615.16489 z M 269.15251,616.39265 C 273.69148,612.73153 274.92476,608.44262 274.96902,596.16489 C 275.03054,579.09774 272.03708,572.58172 263.61601,571.45222 C 259.99917,570.9671 259.20342,571.27194 256.17118,574.30418 C 252.26176,578.2136 250.51047,584.51273 250.51047,594.66489 C 250.51047,609.6082 255.13388,618.18901 263.16047,618.14265 C 265.28495,618.13038 267.9705,617.34606 269.15251,616.39265 z M 261.82992,608.91489 C 260.51362,606.85453 260.21784,584.98294 261.46258,581.75205 C 263.36059,576.82552 264.77011,580.23688 265.28901,591.01291 C 265.98661,605.5 264.51475,613.11738 261.82992,608.91489 z M 302.3465,612.16489 C 302.53132,609.13989 302.37045,598.90239 301.98901,589.41489 L 301.29549,572.16489 L 297.90298,572.16489 L 294.51047,572.16489 L 294.47333,582.41489 L 294.43619,592.66489 L 291.17895,582.66489 L 287.92172,572.66489 L 283.2161,572.3601 L 278.51047,572.05531 L 278.51047,594.6101 L 278.51047,617.16489 L 283.01047,617.16489 L 287.51047,617.16489 L 287.58633,606.91489 L 287.66219,596.66489 L 291.00118,606.37261 C 292.83763,611.71185 294.64572,616.57471 295.01917,617.17897 C 295.39262,617.78322 297.11844,618.13975 298.85432,617.97125 C 301.9287,617.67283 302.01918,617.5224 302.3465,612.16489 z M 332.51047,608.90522 L 332.51047,599.64556 L 335.76047,599.65522 C 338.87088,599.66447 339.02368,599.48235 339.31797,595.41489 L 339.62547,591.16489 L 335.81797,591.16551 L 332.01047,591.16613 L 332.35354,586.2165 L 332.69662,581.26687 L 337.35354,580.96588 L 342.01047,580.66489 L 342.01047,576.66489 L 342.01047,572.66489 L 332.51047,572.66489 L 323.01047,572.66489 L 322.73993,594.14016 C 322.59113,605.95156 322.6895,616.18906 322.95854,616.89016 C 323.25535,617.66363 325.22959,618.16489 327.97909,618.16489 L 332.51047,618.16489 L 332.51047,608.90522 z M 364.51047,614.16489 L 364.51047,610.16489 L 359.66244,610.16489 L 354.8144,610.16489 L 354.16244,599.50933 C 353.80385,593.64877 353.51047,585.32377 353.51047,581.00933 C 353.51047,575.02011 353.18528,573.16489 352.13547,573.16489 C 351.37922,573.16489 349.35422,572.88364 347.63547,572.53989 L 344.51047,571.91489 L 344.51047,595.03989 L 344.51047,618.16489 L 354.51047,618.16489 L 364.51047,618.16489 L 364.51047,614.16489 z M 374.01047,613.16489 C 374.6079,608.82103 374.9986,608.16489 376.98768,608.16489 C 379.41723,608.16489 380.47163,610.34333 380.49682,615.41489 C 380.50968,618.00546 380.77136,618.16489 385.01047,618.16489 C 390.49228,618.16489 390.35154,619.82561 387.0105,594.56582 C 385.63552,584.17031 384.51052,575.10239 384.5105,574.41489 C 384.51048,573.54348 382.5476,573.16489 378.02952,573.16489 C 372.12331,573.16489 371.50425,573.36442 371.04871,575.41489 C 370.47109,578.01492 365.51047,615.26671 365.51047,617.00436 C 365.51047,617.687 367.11898,618.16489 369.41663,618.16489 L 373.32279,618.16489 L 374.01047,613.16489 z M 375.86862,596.41489 C 376.20953,594.35239 376.49341,591.12739 376.49946,589.24822 C 376.51632,584.01574 377.1865,585.91863 377.96693,593.41489 C 378.58911,599.39122 378.47361,600.16489 376.95922,600.16489 C 375.53919,600.16489 375.35402,599.5282 375.86862,596.41489 z M 399.59859,606.41489 L 399.68671,594.66489 L 401.53448,604.66489 C 402.55076,610.16489 403.4111,615.45239 403.44636,616.41489 C 403.49242,617.67224 404.34226,618.16489 406.46516,618.16489 C 409.7366,618.16489 409.39171,619.07369 411.9679,603.66489 L 413.30543,595.66489 L 413.40795,606.91489 L 413.51047,618.16489 L 418.0296,618.16489 L 422.54873,618.16489 L 422.2796,595.91489 L 422.01047,573.66489 L 416.34292,573.36745 C 409.83337,573.02581 410.31637,572.34003 408.38598,584.66489 L 407.13298,592.66489 L 405.8641,584.16489 C 405.16621,579.48989 404.57615,575.10239 404.55284,574.41489 C 404.52381,573.55849 402.6212,573.16489 398.51047,573.16489 L 392.51047,573.16489 L 392.51047,595.66489 L 392.51047,618.16489 L 396.01047,618.16489 L 399.51047,618.16489 L 399.59859,606.41489 z M 433.98294,605.91489 L 433.55404,593.66489 L 435.78225,605.66489 L 438.01047,617.66489 L 440.99769,617.66489 L 443.98492,617.66489 L 445.63059,608.16489 L 447.27627,598.66489 L 447.39337,608.41489 L 447.51047,618.16489 L 452.01047,618.16489 L 456.51047,618.16489 L 456.51047,595.66489 L 456.51047,573.16489 L 450.60082,573.16489 L 444.69117,573.16489 L 443.54682,580.41489 C 441.83062,591.28784 441.92493,590.93166 441.22988,589.16489 C 440.90532,588.33989 440.12002,584.40239 439.48477,580.41489 L 438.32977,573.16489 L 432.42012,573.16489 L 426.51047,573.16489 L 426.51047,595.66489 L 426.51047,618.16489 L 430.46116,618.16489 L 434.41185,618.16489 L 433.98294,605.91489 z M 232.54563,606.41489 L 232.58079,595.66489 L 236.09614,606.41489 L 239.61148,617.16489 L 243.56097,617.16489 L 247.51047,617.16489 L 247.49682,596.91489 C 247.48931,585.77739 247.21182,575.65239 246.88018,574.41489 C 246.40553,572.64371 245.55719,572.16489 242.89384,572.16489 L 239.51047,572.16489 L 239.39811,581.91489 L 239.28575,591.66489 L 236.20773,581.91489 L 233.12971,572.16489 L 228.32009,572.16489 L 223.51047,572.16489 L 223.51047,585.51127 C 223.51047,592.85177 223.80285,602.97677 224.16021,608.01127 L 224.80996,617.16489 L 228.66021,617.16489 L 232.51047,617.16489 L 232.54563,606.41489 z M 319.51047,600.66489 L 319.51047,597.16489 L 312.51047,597.16489 L 305.51047,597.16489 L 305.51047,600.66489 L 305.51047,604.16489 L 312.51047,604.16489 L 319.51047,604.16489 L 319.51047,600.66489 z M 367.51047,523.66014 C 398.58547,518.97964 425.78825,514.60164 427.96108,513.93125 C 430.13392,513.26086 433.84099,511.04256 436.19902,509.0017 C 439.37981,506.24875 441.71539,505.13437 445.2484,504.68399 C 454.85133,503.4598 456.41051,503.06642 458.5608,501.32522 C 460.30764,499.91072 460.61735,498.92801 460.08304,496.49529 C 459.07405,491.9014 455.87512,490.86627 448.2462,492.66505 C 439.88179,494.63724 436.57992,494.52884 433.01047,492.16489 C 431.1313,490.92037 428.32922,490.1786 425.51047,490.1795 C 419.02364,490.18155 304.61668,509.83185 302.92698,511.23418 C 300.21882,513.48175 301.97852,528.44479 305.24149,530.91489 C 306.14967,531.60239 307.81922,532.16607 308.9516,532.16751 C 310.08398,532.16896 336.43547,528.34064 367.51047,523.66014 z M 562.1543,627.79104 C 576.08151,614.09221 579.06459,610.16489 575.54264,610.16489 C 575.07525,610.16489 567.65574,617.21282 559.05485,625.82695 C 547.89135,637.00763 543.78792,641.72438 544.71367,642.31164 C 545.42691,642.76408 546.12605,643.14116 546.26732,643.14958 C 546.40858,643.158 553.55773,636.24666 562.1543,627.79104 z M 589.05565,599.23799 C 587.89295,597.35671 586.56112,598.05189 582.05103,602.89419 C 578.68687,606.50617 577.90401,607.93415 578.73744,608.93837 C 579.60122,609.97916 580.85946,609.21704 584.77377,605.28216 C 587.49357,602.54807 589.42041,599.82819 589.05565,599.23799 z "
       style="fill:#2ab673;fill-opacity:1"
       id="path2221" />
  </g>
</svg>
