<?xml version="1.0" encoding="UTF-8" standalone="no"?>
<!-- Created with Inkscape (http://www.inkscape.org/) -->
<svg
   xmlns:dc="http://purl.org/dc/elements/1.1/"
   xmlns:cc="http://creativecommons.org/ns#"
   xmlns:rdf="http://www.w3.org/1999/02/22-rdf-syntax-ns#"
   xmlns:svg="http://www.w3.org/2000/svg"
   xmlns="http://www.w3.org/2000/svg"
   xmlns:sodipodi="http://sodipodi.sourceforge.net/DTD/sodipodi-0.dtd"
   xmlns:inkscape="http://www.inkscape.org/namespaces/inkscape"
   width="104.925"
   height="104.925"
   id="svg2860"
   sodipodi:version="0.32"
   inkscape:version="0.46"
   version="1.0"
   sodipodi:docname="ADR_6.2.svg"
   inkscape:output_extension="org.inkscape.output.svg.inkscape">
  <defs
     id="defs2862">
    <inkscape:perspective
       sodipodi:type="inkscape:persp3d"
       inkscape:vp_x="0 : 526.18109 : 1"
       inkscape:vp_y="0 : 1000 : 0"
       inkscape:vp_z="744.09448 : 526.18109 : 1"
       inkscape:persp3d-origin="372.04724 : 350.78739 : 1"
       id="perspective2868" />
    <inkscape:perspective
       id="perspective3061"
       inkscape:persp3d-origin="372.04724 : 350.78739 : 1"
       inkscape:vp_z="744.09448 : 526.18109 : 1"
       inkscape:vp_y="0 : 1000 : 0"
       inkscape:vp_x="0 : 526.18109 : 1"
       sodipodi:type="inkscape:persp3d" />
    <inkscape:perspective
       id="perspective3057"
       inkscape:persp3d-origin="372.04724 : 350.78739 : 1"
       inkscape:vp_z="744.09448 : 526.18109 : 1"
       inkscape:vp_y="0 : 1000 : 0"
       inkscape:vp_x="0 : 526.18109 : 1"
       sodipodi:type="inkscape:persp3d" />
  </defs>
  <sodipodi:namedview
     id="base"
     pagecolor="#ffffff"
     bordercolor="#666666"
     borderopacity="1.0"
     inkscape:pageopacity="0.0"
     inkscape:pageshadow="2"
     inkscape:zoom="6.9382891"
     inkscape:cx="58.215936"
     inkscape:cy="52.462502"
     inkscape:document-units="px"
     inkscape:current-layer="layer1"
     showgrid="false"
     inkscape:window-width="1280"
     inkscape:window-height="941"
     inkscape:window-x="-4"
     inkscape:window-y="-4" />
  <metadata
     id="metadata2865">
    <rdf:RDF>
      <cc:Work
         rdf:about="">
        <dc:format>image/svg+xml</dc:format>
        <dc:type
           rdf:resource="http://purl.org/dc/dcmitype/StillImage" />
      </cc:Work>
    </rdf:RDF>
  </metadata>
  <g
     inkscape:label="Calque 1"
     inkscape:groupmode="layer"
     id="layer1"
     transform="translate(-492.44487,-745.42009)">
    <g
       id="g229"
       transform="matrix(1.25,0,0,-1.25,499.64487,797.84509)">
      <path
         d="M 0,0 L 36.18,-36 L 71.94,0 L 36.18,36 L 0,0 z"
         style="fill:none;stroke:#1f1a17;stroke-width:0.71899998;stroke-linecap:round;stroke-linejoin:round;stroke-miterlimit:10;stroke-dasharray:none;stroke-opacity:1"
         id="path231" />
    </g>
    <g
       id="g233"
       transform="matrix(1.25,0,0,-1.25,496.04487,800.54509)">
      <path
         d="M 0,0 L -0.48,-0.72 L -2.88,1.92 L -2.4,2.4 L 0,0 z M 4.08,-4.08 L 3.6,-4.56 L 1.2,-2.16 L 1.68,-1.68 L 4.08,-4.08 z M 8.16,-8.16 L 7.68,-8.64 L 5.28,-6.24 L 5.76,-5.76 L 8.16,-8.16 z M 12.24,-12.24 L 11.76,-12.72 L 9.36,-10.32 L 9.84,-9.84 L 12.24,-12.24 z M 16.32,-16.32 L 15.84,-16.8 L 13.44,-14.4 L 13.92,-13.92 L 16.32,-16.32 z M 20.4,-20.4 L 19.92,-20.88 L 17.52,-18.48 L 18,-17.76 L 20.4,-20.4 z M 24.48,-24.48 L 24,-24.96 L 21.6,-22.56 L 22.08,-21.84 L 24.48,-24.48 z M 28.56,-28.56 L 28.08,-29.04 L 25.68,-26.4 L 26.16,-25.92 L 28.56,-28.56 z M 32.88,-32.64 L 32.16,-33.12 L 29.76,-30.48 L 30.24,-30 L 32.88,-32.64 z M 36.9,-36.72 L 36.18,-37.2 L 33.78,-34.56 L 34.26,-34.08 L 36.9,-36.72 z M 39.3,-39.6 L 38.82,-39.6 L 37.86,-38.64 L 38.34,-38.16 L 39.3,-39.12 L 39.3,-39.6 z M 39.3,-39.6 L 39.06,-39.84 L 38.82,-39.6 L 39.3,-39.6 z M 40.26,-37.44 L 40.98,-37.92 L 39.3,-39.6 L 38.82,-39.12 L 40.26,-37.44 z M 44.34,-33.36 L 45.06,-33.84 L 42.42,-36.48 L 41.94,-36 L 44.34,-33.36 z M 48.42,-29.28 L 49.14,-29.76 L 46.5,-32.4 L 46.02,-31.92 L 48.42,-29.28 z M 52.5,-25.2 L 53.22,-25.68 L 50.58,-28.32 L 50.1,-27.84 L 52.5,-25.2 z M 56.58,-21.12 L 57.06,-21.6 L 54.66,-24.24 L 54.18,-23.76 L 56.58,-21.12 z M 60.66,-17.04 L 61.14,-17.52 L 58.74,-20.16 L 58.26,-19.68 L 60.66,-17.04 z M 64.74,-12.96 L 65.22,-13.44 L 62.82,-16.08 L 62.34,-15.6 L 64.74,-12.96 z M 68.82,-8.88 L 69.3,-9.36 L 66.9,-12 L 66.42,-11.52 L 68.82,-8.88 z M 72.9,-4.8 L 73.38,-5.28 L 70.98,-7.92 L 70.5,-7.44 L 72.9,-4.8 z M 76.98,-0.72 L 77.46,-1.2 L 75.06,-3.84 L 74.58,-3.36 L 76.98,-0.72 z M 80.82,2.4 L 80.82,1.92 L 79.14,0.24 L 78.66,0.72 L 80.1,2.4 L 80.82,2.4 z M 80.82,2.4 L 81.06,2.16 L 80.82,1.92 L 80.82,2.4 z M 79.38,2.88 L 79.86,3.36 L 80.82,2.4 L 80.1,1.92 L 79.38,2.88 z M 75.3,6.96 L 75.78,7.44 L 78.18,4.8 L 77.7,4.32 L 75.3,6.96 z M 71.22,11.04 L 71.7,11.52 L 74.34,8.88 L 73.62,8.4 L 71.22,11.04 z M 67.14,15.12 L 67.62,15.6 L 70.26,12.96 L 69.54,12.48 L 67.14,15.12 z M 63.06,19.2 L 63.54,19.68 L 66.18,17.04 L 65.46,16.56 L 63.06,19.2 z M 58.98,23.28 L 59.46,23.76 L 62.1,21.12 L 61.38,20.64 L 58.98,23.28 z M 54.9,27.36 L 55.38,27.84 L 58.02,25.2 L 57.3,24.72 L 54.9,27.36 z M 50.82,31.44 L 51.3,31.92 L 53.94,29.28 L 53.22,28.8 L 50.82,31.44 z M 46.74,35.52 L 47.22,36 L 49.86,33.36 L 49.38,32.88 L 46.74,35.52 z M 42.66,39.6 L 43.14,40.02 L 45.78,37.44 L 45.3,36.96 L 42.66,39.6 z M 38.82,43.86 L 39.3,43.86 L 41.7,41.46 L 41.22,40.98 L 38.82,43.38 L 38.82,43.86 z M 38.82,43.86 L 39.06,44.1 L 39.3,43.86 L 38.82,43.86 z M 39.06,43.14 L 38.58,43.86 L 38.82,43.86 L 39.3,43.38 L 39.06,43.14 z M 34.98,39.36 L 34.5,39.78 L 37.14,42.18 L 37.62,41.7 L 34.98,39.36 z M 30.96,35.28 L 30.48,35.76 L 33.12,38.16 L 33.6,37.68 L 30.96,35.28 z M 26.88,31.2 L 26.4,31.68 L 28.8,34.08 L 29.52,33.6 L 26.88,31.2 z M 22.8,27.12 L 22.32,27.6 L 24.72,30 L 25.44,29.52 L 22.8,27.12 z M 18.72,23.04 L 18.24,23.52 L 20.64,25.92 L 21.36,25.44 L 18.72,23.04 z M 14.64,18.96 L 14.16,19.44 L 16.56,22.08 L 17.28,21.36 L 14.64,18.96 z M 10.56,14.88 L 10.08,15.36 L 12.48,18 L 12.96,17.52 L 10.56,14.88 z M 6.48,10.8 L 6,11.28 L 8.4,13.92 L 8.88,13.44 L 6.48,10.8 z M 2.4,6.72 L 1.92,7.2 L 4.32,9.84 L 4.8,9.36 L 2.4,6.72 z M -1.68,2.64 L -2.16,3.12 L 0.24,5.76 L 0.72,5.28 L -1.68,2.64"
         style="fill:#1f1a17;fill-opacity:1;fill-rule:nonzero;stroke:none"
         id="path235" />
    </g>
    <g
       id="g297"
       transform="matrix(1.25,0,0,-1.25,542.16987,765.44509)">
      <path
         d="M 0,0 C -1.031,-0.83 -1.41,-0.788 -2.4,-1.92 L -2.64,-2.4 L -2.88,-2.64 L -2.88,-3.12 L -3.12,-3.36 L -3.3,-3.84 L -3.3,-5.04 C -3.427,-8.123 -1.038,-10.4 1.92,-10.56 C 3.313,-10.466 4.836,-10.033 5.76,-8.88 C 6.895,-8.08 7.286,-6.315 7.2,-5.04 C 7.295,-4.023 6.997,-2.602 6.24,-1.92 L 6,-1.68 L 5.76,-1.2 L 5.52,-0.96 L 5.04,-0.72 L 4.8,-0.48 L 4.32,-0.24 L 4.08,0 L 3.6,0 L 3.6,0.24 C 5.639,-0.471 5.762,-0.685 7.2,-2.16 L 7.68,-2.64 L 8.16,-3.6 L 8.4,-4.32 L 8.4,-4.8 L 8.64,-5.28 L 8.64,-7.92 L 8.4,-8.4 L 8.16,-9.12 L 7.92,-9.6 L 7.68,-10.32 L 6.72,-11.28 C 5.46,-12.499 3.754,-13.435 1.92,-13.2 C -1.606,-13.532 -5.031,-9.92 -4.74,-6.48 C -4.885,-4.988 -4.233,-3.693 -3.54,-2.4 L -3.12,-1.92 L -2.4,-1.2 L -1.92,-0.96 L -1.2,-0.24 L -0.48,0 L 0,0"
         style="fill:#1f1a17;fill-opacity:1;fill-rule:evenodd;stroke:none"
         id="path299" />
    </g>
    <g
       id="g301"
       transform="matrix(1.25,0,0,-1.25,532.34487,792.14509)">
      <path
         d="M 0,0 L 0.48,-0.48 L 0.96,-0.48 L 1.2,-0.72 L 1.68,-0.96 L 2.4,-0.96 L 2.88,-1.2 L 3.6,-1.2 L 4.08,-0.96 L 4.74,-0.96 L 5.22,-0.72 L 5.46,-0.48 L 5.94,-0.48 C 6.951,0.452 8.323,1.307 8.34,2.88 C 8.881,4.181 8.662,5.786 7.86,6.96 C 6.756,9.483 3.001,10.455 0.72,8.88 L 0.24,8.64 L 0,8.4 L -0.48,8.16 L -0.72,7.92 L -0.96,7.44 L -1.2,7.2 L -1.44,6.72 L -1.68,6.48 L -1.68,6 L -1.92,5.52 L -1.92,4.8 L -2.16,4.32 L -2.16,4.08 L -1.92,3.6 L -1.92,3.12 L -2.16,3.12 L -2.16,4.32 L -2.4,4.8 L -2.16,5.28 L -2.16,6.48 L -1.68,7.44 L -1.68,7.92 L -1.2,8.4 L -0.72,9.36 L -0.24,9.84 L 0.24,10.08 L 0.72,10.56 L 1.2,10.8 C 4.63,12.815 8.203,11.541 10.26,8.4 L 10.5,7.68 L 10.74,7.2 L 11.22,5.76 L 11.22,4.56 L 10.98,3.84 L 10.98,3.12 C 9.937,0.499 9.922,0.756 7.86,-0.96 C 6.703,-1.654 4.952,-2.043 3.6,-1.92 C 2.332,-1.505 0.747,-0.993 -0.24,0 L 0,0"
         style="fill:#1f1a17;fill-opacity:1;fill-rule:evenodd;stroke:none"
         id="path303" />
    </g>
    <g
       id="g305"
       transform="matrix(1.25,0,0,-1.25,558.96987,790.04509)">
      <path
         d="M 0,0 C 1.111,1.522 0.288,4.733 -0.96,6 C -1.973,6.954 -3.374,7.651 -4.8,7.44 C -6.502,7.559 -7.434,7.301 -8.64,6 C -9.739,4.202 -10.214,4.921 -10.08,2.16 C -10.248,0.076 -9.614,-0.092 -8.64,-1.68 C -7.02,-3.257 -4.441,-3.598 -2.4,-2.64 L -2.88,-3.12 L -3.36,-3.12 L -3.84,-3.36 L -4.56,-3.6 L -7.2,-3.6 L -10.08,-2.16 L -10.56,-1.68 C -13.158,0.58 -13.18,5.67 -10.56,7.92 C -8.151,10.573 -3.446,10.509 -0.96,7.92 L -0.72,7.44 L -0.24,7.2 L 0.48,5.76 L 0.72,5.04 L 0.72,4.56 L 0.96,4.08 C 1.003,2.648 0.996,1.245 0.24,0 L 0,0"
         style="fill:#1f1a17;fill-opacity:1;fill-rule:evenodd;stroke:none"
         id="path307" />
    </g>
    <g
       id="g309"
       transform="matrix(1.25,0,0,-1.25,535.64487,781.34509)">
      <path
         d="M 0,0 L 0,-0.72 L 0.24,-1.2 L 0.24,-2.16 L 0.72,-3.12 L 0.96,-3.36 L 0.96,-3.6 L 1.68,-4.32 L 1.68,-4.8 L 1.92,-5.04 L 2.1,-5.28 L 3.06,-5.76 L 3.54,-6.24 L 4.02,-6.48 L 4.74,-6.72 L 4.98,-6.72 L 5.7,-6.96 L 5.94,-6.96 L 6.42,-7.2 L 7.86,-7.2 L 8.1,-6.96 L 8.58,-6.96 L 9.06,-6.72 L 9.54,-6.72 L 10.02,-6.48 L 10.74,-6.24 L 11.46,-5.52 L 11.94,-5.28 L 12.18,-5.04 L 12.66,-4.32 L 13.38,-3.6 L 13.38,-3.36 L 13.62,-3.12 L 13.62,-2.64 L 13.86,-2.16 L 14.1,-1.44 L 14.1,-0.72 L 14.34,0 L 14.1,0.72 L 14.1,0.96 C 14.145,1.884 13.394,2.742 13.38,3.6 C 12.66,4.32 11.94,5.04 11.22,5.76 L 10.98,5.76 L 10.5,6.24 L 10.02,6.24 L 9.54,6.72 L 9.06,6.72 L 8.58,6.96 L 5.7,6.96 L 4.98,6.72 L 4.74,6.72 L 4.5,6.48 L 4.02,6.24 L 3.78,6.24 L 3.3,5.76 L 2.58,5.52 L 2.1,5.04 L 1.92,4.8 L 1.68,4.56 L 1.68,4.32 L 0.96,3.6 L 0.96,3.12 L 0.48,2.64 L 0.24,1.92 L 0.24,0.96 L 0,0.72 L 0,0 z M 1.44,0 L 1.44,-0.96 L 1.68,-1.44 L 1.68,-1.92 C 1.884,-2.441 2.266,-2.854 2.34,-3.36 C 3.035,-3.969 3.608,-4.911 4.5,-5.04 L 4.74,-5.28 L 4.98,-5.28 L 5.22,-5.52 L 5.7,-5.52 L 5.94,-5.76 L 8.34,-5.76 L 8.58,-5.52 L 9.06,-5.52 L 9.3,-5.28 L 10.26,-4.8 L 10.5,-4.8 L 10.98,-4.32 L 10.98,-4.08 L 11.22,-4.08 L 11.7,-3.6 L 11.7,-3.36 L 12.18,-2.88 L 12.18,-2.64 L 12.42,-2.4 L 12.42,-1.92 L 12.9,-0.96 L 12.9,0.72 L 12.66,1.44 L 12.66,1.68 L 12.42,1.92 L 12.42,2.4 L 12.18,2.64 L 12.18,2.88 L 11.7,3.36 L 11.7,3.6 L 11.46,3.6 L 10.98,4.08 L 10.98,4.32 L 10.5,4.56 L 10.26,4.8 L 9.3,5.28 L 9.06,5.28 L 8.58,5.52 L 7.86,5.52 L 7.38,5.76 L 6.9,5.76 L 6.18,5.52 L 5.7,5.52 L 5.22,5.28 L 4.98,5.28 L 4.74,5.04 L 4.5,5.04 L 4.26,4.8 L 4.02,4.8 L 3.54,4.32 L 3.3,4.32 L 3.06,4.08 L 3.06,3.84 L 2.82,3.6 L 2.58,3.6 L 2.34,3.36 L 2.34,3.12 L 2.1,2.88 L 2.1,2.64 L 1.92,2.4 L 1.92,2.16 L 1.68,1.92 C 1.749,0.829 1.339,1.331 1.44,0"
         style="fill:#1f1a17;fill-opacity:1;fill-rule:evenodd;stroke:none"
         id="path311" />
    </g>
    <g
       id="g313"
       transform="matrix(1.25,0,0,-1.25,548.16987,781.64509)">
      <path
         d="M 0,0 L -0.24,-0.96 L -0.72,-1.92 L -1.68,-2.4 L -2.64,-2.64 L -3.6,-2.4 L -4.56,-1.92 L -5.04,-0.96 L -5.28,0 L -5.04,0.96 L -4.56,1.92 L -3.6,2.4 L -2.64,2.64 L -1.68,2.4 L -0.72,1.92 L -0.24,0.96 L 0,0"
         style="fill:#ffffff;fill-opacity:1;fill-rule:evenodd;stroke:none"
         id="path315" />
    </g>
    <g
       id="g317"
       transform="matrix(1.25,0,0,-1.25,547.86987,828.14509)">
      <path
         d="M 0,0 L -1.44,0 L -1.68,0.24 L -1.68,0.48 L -1.92,0.48 L -2.4,0.72 L -2.88,0.48 L -3.12,0.24 L -3.6,-1.2 L -3.36,-0.96 L -2.88,-0.96 L -2.64,-0.72 L -2.16,-0.72 L -1.2,-0.96 L -0.48,-1.44 L 0,-2.16 L 0,-4.08 L -0.72,-4.8 L -1.44,-5.28 L -2.4,-5.52 L -2.88,-5.52 L -3.6,-5.28 L -4.32,-4.56 L -4.8,-3.6 L -5.04,-1.92 L -4.8,-0.48 L -4.32,0.72 L -3.84,1.2 C -2.454,2.154 -0.372,1.861 0,0 z M -2.4,-4.32 L -1.92,-4.32 L -1.68,-4.08 L -1.44,-3.6 L -1.44,-2.64 L -1.68,-2.16 L -1.92,-1.92 L -2.88,-1.92 L -3.12,-2.16 L -3.6,-3.12 L -3.12,-4.08 L -2.88,-4.32 L -2.4,-4.32"
         style="fill:#1f1a17;fill-opacity:1;fill-rule:evenodd;stroke:none"
         id="path319" />
    </g>
  </g>
</svg>
