<?xml version="1.0" encoding="UTF-8" standalone="no"?>
<!-- Created with Inkscape (http://www.inkscape.org/) -->
<svg
   xmlns:dc="http://purl.org/dc/elements/1.1/"
   xmlns:cc="http://creativecommons.org/ns#"
   xmlns:rdf="http://www.w3.org/1999/02/22-rdf-syntax-ns#"
   xmlns:svg="http://www.w3.org/2000/svg"
   xmlns="http://www.w3.org/2000/svg"
   xmlns:sodipodi="http://sodipodi.sourceforge.net/DTD/sodipodi-0.dtd"
   xmlns:inkscape="http://www.inkscape.org/namespaces/inkscape"
   width="108.825"
   height="108.525"
   id="svg2923"
   sodipodi:version="0.32"
   inkscape:version="0.46"
   version="1.0"
   sodipodi:docname="ADR_7B.svg"
   inkscape:output_extension="org.inkscape.output.svg.inkscape">
  <defs
     id="defs2925">
    <inkscape:perspective
       sodipodi:type="inkscape:persp3d"
       inkscape:vp_x="0 : 526.18109 : 1"
       inkscape:vp_y="0 : 1000 : 0"
       inkscape:vp_z="744.09448 : 526.18109 : 1"
       inkscape:persp3d-origin="372.04724 : 350.78739 : 1"
       id="perspective2931" />
  </defs>
  <sodipodi:namedview
     id="base"
     pagecolor="#ffffff"
     bordercolor="#666666"
     borderopacity="1.0"
     inkscape:pageopacity="0.0"
     inkscape:pageshadow="2"
     inkscape:zoom="13.416263"
     inkscape:cx="54.412498"
     inkscape:cy="30.57138"
     inkscape:document-units="px"
     inkscape:current-layer="layer1"
     showgrid="false"
     inkscape:window-width="1280"
     inkscape:window-height="941"
     inkscape:window-x="-4"
     inkscape:window-y="-4" />
  <metadata
     id="metadata2928">
    <rdf:RDF>
      <cc:Work
         rdf:about="">
        <dc:format>image/svg+xml</dc:format>
        <dc:type
           rdf:resource="http://purl.org/dc/dcmitype/StillImage" />
      </cc:Work>
    </rdf:RDF>
  </metadata>
  <g
     inkscape:label="Calque 1"
     inkscape:groupmode="layer"
     id="layer1"
     transform="translate(-148.44464,-740.95683)">
    <g
       id="g17"
       transform="matrix(1.25,0,0,-1.25,152.64464,797.88183)">
      <path
         d="M 0,0 L -0.48,-0.72 L -3.12,1.92 L -2.64,2.4 L 0,0 z M 4.08,-4.08 L 3.6,-4.56 L 0.96,-2.16 L 1.44,-1.68 L 4.08,-4.08 z M 8.16,-8.16 L 7.68,-8.64 L 5.04,-6.24 L 5.52,-5.76 L 8.16,-8.16 z M 12.24,-12.24 L 11.76,-12.72 L 9.12,-10.32 L 9.6,-9.84 L 12.24,-12.24 z M 16.32,-16.32 L 15.84,-16.8 L 13.2,-14.4 L 13.68,-13.92 L 16.32,-16.32 z M 20.4,-20.4 L 19.92,-20.88 L 17.28,-18.48 L 17.76,-18 L 20.4,-20.4 z M 24.48,-24.48 L 24,-24.96 L 21.36,-22.56 L 21.84,-21.84 L 24.48,-24.48 z M 28.5,-28.56 L 28.02,-29.04 L 25.44,-26.4 L 25.92,-25.92 L 28.5,-28.56 z M 32.58,-32.64 L 32.1,-33.12 L 29.46,-30.48 L 29.94,-30 L 32.58,-32.64 z M 36.66,-36.72 L 36.18,-37.2 L 33.54,-34.56 L 34.02,-34.08 L 36.66,-36.72 z M 40.5,-41.04 L 40.02,-41.04 L 37.62,-38.64 L 38.1,-38.16 L 40.5,-40.56 L 40.5,-41.04 z M 40.5,-41.04 L 40.26,-41.28 L 40.02,-41.04 L 40.5,-41.04 z M 40.26,-40.08 L 40.74,-40.56 L 40.5,-41.04 L 40.02,-40.56 L 40.26,-40.08 z M 44.34,-36 L 44.82,-36.48 L 42.18,-39.12 L 41.7,-38.64 L 44.34,-36 z M 48.42,-31.92 L 48.9,-32.4 L 46.26,-35.04 L 45.78,-34.56 L 48.42,-31.92 z M 52.5,-27.84 L 52.98,-28.56 L 50.34,-30.96 L 49.86,-30.48 L 52.5,-27.84 z M 56.58,-23.76 L 57.06,-24.48 L 54.42,-26.88 L 53.94,-26.4 L 56.58,-23.76 z M 60.66,-19.68 L 61.14,-20.4 L 58.5,-22.8 L 58.02,-22.32 L 60.66,-19.68 z M 64.74,-15.6 L 65.22,-16.32 L 62.58,-18.72 L 62.1,-18.24 L 64.74,-15.6 z M 68.82,-11.52 L 69.3,-12.24 L 66.66,-14.64 L 66.18,-14.16 L 68.82,-11.52 z M 72.9,-7.44 L 73.38,-8.16 L 70.74,-10.56 L 70.26,-10.08 L 72.9,-7.44 z M 76.98,-3.6 L 77.46,-4.08 L 74.82,-6.48 L 74.34,-6 L 76.98,-3.6 z M 81.06,0.48 L 81.54,0 L 78.9,-2.4 L 78.42,-1.92 L 81.06,0.48 z M 83.22,2.4 L 83.22,1.92 L 82.98,1.68 L 82.5,2.16 L 82.74,2.4 L 83.22,2.4 z M 83.22,2.4 L 83.7,2.16 L 83.22,1.92 L 83.22,2.4 z M 80.58,4.08 L 81.06,4.56 L 83.22,2.4 L 82.74,1.92 L 80.58,4.08 z M 76.5,8.16 L 76.98,8.64 L 79.62,6.24 L 79.14,5.76 L 76.5,8.16 z M 72.42,12.18 L 72.9,12.66 L 75.54,10.26 L 75.06,9.84 L 72.42,12.18 z M 68.34,16.26 L 68.82,16.74 L 71.46,14.34 L 70.98,13.86 L 68.34,16.26 z M 64.26,20.34 L 64.74,20.82 L 67.38,18.42 L 66.9,17.94 L 64.26,20.34 z M 60.18,24.42 L 60.66,24.9 L 63.3,22.5 L 62.82,22.02 L 60.18,24.42 z M 56.1,28.5 L 56.58,28.98 L 59.22,26.58 L 58.74,26.1 L 56.1,28.5 z M 52.02,32.58 L 52.5,33.06 L 55.14,30.66 L 54.66,30.18 L 52.02,32.58 z M 47.94,36.66 L 48.42,37.14 L 51.06,34.74 L 50.58,34.26 L 47.94,36.66 z M 43.86,40.74 L 44.34,41.22 L 46.98,38.82 L 46.5,38.34 L 43.86,40.74 z M 40.02,45.3 L 40.5,45.3 L 42.9,42.9 L 42.42,42.42 L 40.02,44.82 L 40.02,45.3 z M 40.02,45.3 L 40.26,45.54 L 40.5,45.3 L 40.02,45.3 z M 40.26,44.58 L 39.78,45.06 L 40.02,45.3 L 40.5,44.82 L 40.26,44.58 z M 36.18,40.5 L 35.7,40.98 L 38.34,43.62 L 38.82,43.14 L 36.18,40.5 z M 32.1,36.42 L 31.62,37.14 L 34.26,39.54 L 34.74,39.06 L 32.1,36.42 z M 28.02,32.34 L 27.54,33.06 L 30.18,35.46 L 30.66,34.98 L 28.02,32.34 z M 24,28.5 L 23.52,28.98 L 26.16,31.38 L 26.58,30.9 L 24,28.5 z M 19.92,24.42 L 19.44,24.9 L 22.08,27.3 L 22.56,26.82 L 19.92,24.42 z M 15.84,20.34 L 15.36,20.82 L 18,23.22 L 18.48,22.74 L 15.84,20.34 z M 11.76,16.26 L 11.28,16.74 L 13.92,19.14 L 14.4,18.66 L 11.76,16.26 z M 7.68,12.18 L 7.2,12.66 L 9.84,15.3 L 10.32,14.58 L 7.68,12.18 z M 3.6,8.16 L 3.12,8.64 L 5.76,11.22 L 6.24,10.5 L 3.6,8.16 z M -0.48,4.08 L -0.96,4.56 L 1.68,7.2 L 2.16,6.72 L -0.48,4.08 z M -3.12,1.92 L -3.12,2.4 L -2.4,3.12 L -1.92,2.64 L -2.64,1.92 L -3.12,1.92 z M -3.12,1.92 L -3.36,2.16 L -3.12,2.4 L -3.12,1.92"
         style="fill:#1f1a17;fill-opacity:1;fill-rule:nonzero;stroke:none"
         id="path19" />
    </g>
    <g
       id="g271"
       transform="matrix(1.25,0,0,-1.25,156.24464,795.48183)">
      <path
         d="M 0,0 L 37.38,37.38 L 74.34,0.48 L 0,0"
         style="fill:#fff600;fill-opacity:1;fill-rule:evenodd;stroke:none"
         id="path273" />
    </g>
    <g
       id="g275"
       transform="matrix(1.25,0,0,-1.25,200.56964,829.68183)">
      <path
         d="M 0,0 L 5.04,0 L 5.04,-0.96 L 3.84,-2.4 L 3.12,-3.84 L 2.64,-5.28 L 2.4,-6.96 L 0.96,-6.96 L 1.2,-5.52 L 1.68,-4.08 L 2.4,-2.64 L 3.36,-1.2 L 0,-1.2 L 0,0"
         style="fill:#1f1a17;fill-opacity:1;fill-rule:evenodd;stroke:none"
         id="path277" />
    </g>
    <g
       id="g279"
       transform="matrix(1.25,0,0,-1.25,200.56964,829.68183)">
      <path
         d="M 0,0 L 5.04,0 L 5.04,-0.96 L 3.84,-2.4 L 3.12,-3.84 L 2.64,-5.28 L 2.4,-6.96 L 0.96,-6.96 L 1.2,-5.52 L 1.68,-4.08 L 2.4,-2.64 L 3.36,-1.2 L 0,-1.2 L 0,0"
         style="fill:none;stroke:#1f1a17;stroke-width:0.23999999;stroke-linecap:round;stroke-linejoin:round;stroke-miterlimit:10;stroke-dasharray:none;stroke-opacity:1"
         id="path281" />
    </g>
    <g
       id="g295"
       transform="matrix(1.25,0,0,-1.25,152.64464,797.88183)">
      <path
         d="M 0,0 L -0.48,-0.72 L -3.12,1.92 L -2.64,2.4 L 0,0 z M 4.08,-4.08 L 3.6,-4.56 L 0.96,-2.16 L 1.44,-1.68 L 4.08,-4.08 z M 8.16,-8.16 L 7.68,-8.64 L 5.04,-6.24 L 5.52,-5.76 L 8.16,-8.16 z M 12.24,-12.24 L 11.76,-12.72 L 9.12,-10.32 L 9.6,-9.84 L 12.24,-12.24 z M 16.32,-16.32 L 15.84,-16.8 L 13.2,-14.4 L 13.68,-13.92 L 16.32,-16.32 z M 20.4,-20.4 L 19.92,-20.88 L 17.28,-18.48 L 17.76,-18 L 20.4,-20.4 z M 24.48,-24.48 L 24,-24.96 L 21.36,-22.56 L 21.84,-21.84 L 24.48,-24.48 z M 28.5,-28.56 L 28.02,-29.04 L 25.44,-26.4 L 25.92,-25.92 L 28.5,-28.56 z M 32.58,-32.64 L 32.1,-33.12 L 29.46,-30.48 L 29.94,-30 L 32.58,-32.64 z M 36.66,-36.72 L 36.18,-37.2 L 33.54,-34.56 L 34.02,-34.08 L 36.66,-36.72 z M 40.5,-41.04 L 40.02,-41.04 L 37.62,-38.64 L 38.1,-38.16 L 40.5,-40.56 L 40.5,-41.04 z M 40.5,-41.04 L 40.26,-41.28 L 40.02,-41.04 L 40.5,-41.04 z M 40.26,-40.08 L 40.74,-40.56 L 40.5,-41.04 L 40.02,-40.56 L 40.26,-40.08 z M 44.34,-36 L 44.82,-36.48 L 42.18,-39.12 L 41.7,-38.64 L 44.34,-36 z M 48.42,-31.92 L 48.9,-32.4 L 46.26,-35.04 L 45.78,-34.56 L 48.42,-31.92 z M 52.5,-27.84 L 52.98,-28.56 L 50.34,-30.96 L 49.86,-30.48 L 52.5,-27.84 z M 56.58,-23.76 L 57.06,-24.48 L 54.42,-26.88 L 53.94,-26.4 L 56.58,-23.76 z M 60.66,-19.68 L 61.14,-20.4 L 58.5,-22.8 L 58.02,-22.32 L 60.66,-19.68 z M 64.74,-15.6 L 65.22,-16.32 L 62.58,-18.72 L 62.1,-18.24 L 64.74,-15.6 z M 68.82,-11.52 L 69.3,-12.24 L 66.66,-14.64 L 66.18,-14.16 L 68.82,-11.52 z M 72.9,-7.44 L 73.38,-8.16 L 70.74,-10.56 L 70.26,-10.08 L 72.9,-7.44 z M 76.98,-3.6 L 77.46,-4.08 L 74.82,-6.48 L 74.34,-6 L 76.98,-3.6 z M 81.06,0.48 L 81.54,0 L 78.9,-2.4 L 78.42,-1.92 L 81.06,0.48 z M 83.22,2.4 L 83.22,1.92 L 82.98,1.68 L 82.5,2.16 L 82.74,2.4 L 83.22,2.4 z M 83.22,2.4 L 83.7,2.16 L 83.22,1.92 L 83.22,2.4 z M 80.58,4.08 L 81.06,4.56 L 83.22,2.4 L 82.74,1.92 L 80.58,4.08 z M 76.5,8.16 L 76.98,8.64 L 79.62,6.24 L 79.14,5.76 L 76.5,8.16 z M 72.42,12.18 L 72.9,12.66 L 75.54,10.26 L 75.06,9.84 L 72.42,12.18 z M 68.34,16.26 L 68.82,16.74 L 71.46,14.34 L 70.98,13.86 L 68.34,16.26 z M 64.26,20.34 L 64.74,20.82 L 67.38,18.42 L 66.9,17.94 L 64.26,20.34 z M 60.18,24.42 L 60.66,24.9 L 63.3,22.5 L 62.82,22.02 L 60.18,24.42 z M 56.1,28.5 L 56.58,28.98 L 59.22,26.58 L 58.74,26.1 L 56.1,28.5 z M 52.02,32.58 L 52.5,33.06 L 55.14,30.66 L 54.66,30.18 L 52.02,32.58 z M 47.94,36.66 L 48.42,37.14 L 51.06,34.74 L 50.58,34.26 L 47.94,36.66 z M 43.86,40.74 L 44.34,41.22 L 46.98,38.82 L 46.5,38.34 L 43.86,40.74 z M 40.02,45.3 L 40.5,45.3 L 42.9,42.9 L 42.42,42.42 L 40.02,44.82 L 40.02,45.3 z M 40.02,45.3 L 40.26,45.54 L 40.5,45.3 L 40.02,45.3 z M 40.26,44.58 L 39.78,45.06 L 40.02,45.3 L 40.5,44.82 L 40.26,44.58 z M 36.18,40.5 L 35.7,40.98 L 38.34,43.62 L 38.82,43.14 L 36.18,40.5 z M 32.1,36.42 L 31.62,37.14 L 34.26,39.54 L 34.74,39.06 L 32.1,36.42 z M 28.02,32.34 L 27.54,33.06 L 30.18,35.46 L 30.66,34.98 L 28.02,32.34 z M 24,28.5 L 23.52,28.98 L 26.16,31.38 L 26.58,30.9 L 24,28.5 z M 19.92,24.42 L 19.44,24.9 L 22.08,27.3 L 22.56,26.82 L 19.92,24.42 z M 15.84,20.34 L 15.36,20.82 L 18,23.22 L 18.48,22.74 L 15.84,20.34 z M 11.76,16.26 L 11.28,16.74 L 13.92,19.14 L 14.4,18.66 L 11.76,16.26 z M 7.68,12.18 L 7.2,12.66 L 9.84,15.3 L 10.32,14.58 L 7.68,12.18 z M 3.6,8.16 L 3.12,8.64 L 5.76,11.22 L 6.24,10.5 L 3.6,8.16 z M -0.48,4.08 L -0.96,4.56 L 1.68,7.2 L 2.16,6.72 L -0.48,4.08 z M -3.12,1.92 L -3.12,2.4 L -2.4,3.12 L -1.92,2.64 L -2.64,1.92 L -3.12,1.92 z M -3.12,1.92 L -3.36,2.16 L -3.12,2.4 L -3.12,1.92"
         style="fill:#1f1a17;fill-opacity:1;fill-rule:nonzero;stroke:none"
         id="path297" />
    </g>
    <g
       id="g307"
       transform="matrix(1.25,0,0,-1.25,156.84464,795.18183)">
      <path
         d="M 0,0 L 74.1,0"
         style="fill:none;stroke:#1f1a17;stroke-width:0.47999999;stroke-linecap:round;stroke-linejoin:round;stroke-miterlimit:10;stroke-dasharray:none;stroke-opacity:1"
         id="path309" />
    </g>
    <g
       id="g311"
       transform="matrix(1.25,0,0,-1.25,156.24464,795.18183)">
      <path
         d="M 0,0 L 37.14,-37.2 L 74.34,0 L 37.14,37.14 L 0,0 z"
         style="fill:none;stroke:#1f1a17;stroke-width:0.71899998;stroke-linecap:round;stroke-linejoin:round;stroke-miterlimit:10;stroke-dasharray:none;stroke-opacity:1"
         id="path313" />
    </g>
    <path
       d="M 224.56964,804.18183 L 226.36964,804.18183 L 226.36964,797.58183 L 224.56964,797.58183 L 224.56964,804.18183 z"
       style="fill:#da251d;fill-opacity:1;fill-rule:nonzero;stroke:none"
       id="path317" />
    <path
       d="M 227.56964,804.18183 L 229.36964,804.18183 L 229.36964,797.58183 L 227.56964,797.58183 L 227.56964,804.18183 z"
       style="fill:#da251d;fill-opacity:1;fill-rule:nonzero;stroke:none"
       id="path319" />
    <g
       id="g325"
       transform="matrix(1.25,0,0,-1.25,175.74464,802.98183)">
      <path
         d="M 0,0 L 0,4.56 L 1.68,4.56 L 2.16,4.32 L 2.4,4.32 L 2.88,3.84 C 2.887,2.874 3.034,2.388 1.92,1.92 L 2.16,1.92 L 2.64,1.44 L 3.36,0 L 2.4,0 L 1.68,1.44 L 1.2,1.92 L 0.72,1.92 L 0.72,0 L 0,0 z M 0.72,2.64 L 2.16,2.64 L 2.16,3.6 L 0.72,3.6 L 0.72,2.64 z M 6.96,0 L 6,0 L 5.76,0.96 L 4.32,0.96 L 4.08,0 L 3.36,0 L 4.8,4.56 L 5.52,4.56 L 6.96,0 z M 5.52,1.92 L 5.04,3.36 L 4.56,1.92 L 5.52,1.92 z M 7.2,4.56 L 8.58,4.56 L 9.06,4.32 L 9.3,4.32 L 10.02,3.6 L 10.02,3.36 L 10.26,2.88 L 10.26,2.16 C 10.089,0.075 9.25,-0.193 7.2,0 L 7.2,4.56 z M 7.86,3.6 L 7.86,0.72 L 8.82,0.72 L 9.06,0.96 L 9.3,0.96 L 9.3,1.44 L 9.54,1.92 L 9.54,2.64 L 9.3,3.12 L 9.3,3.36 L 9.06,3.6 L 7.86,3.6 z M 11.46,0 L 10.74,0 L 10.74,4.56 L 11.46,4.56 L 11.46,0 z M 12.18,2.16 L 12.18,3.6 L 12.66,3.84 L 12.9,4.32 L 13.38,4.56 L 13.86,4.56 L 14.58,4.32 L 15.06,3.84 L 15.3,3.12 L 15.54,2.16 L 15.3,1.2 L 15.06,0.48 L 14.58,0.24 L 13.86,0 L 13.14,0.24 L 12.66,0.48 L 12.18,1.2 L 12.18,2.16 z M 12.9,2.16 L 12.9,1.68 L 13.14,1.2 L 13.38,0.96 L 13.86,0.72 L 14.1,0.96 L 14.58,1.2 L 14.82,1.68 L 14.82,2.88 L 14.58,3.36 L 14.1,3.6 L 13.86,3.84 L 13.38,3.6 L 13.14,3.36 L 12.9,2.88 L 12.9,2.16 z M 19.38,0 L 18.42,0 L 18.18,0.96 L 16.74,0.96 L 16.5,0 L 15.78,0 L 17.22,4.56 L 17.94,4.56 L 19.38,0 z M 17.94,1.92 L 17.46,3.36 L 16.98,1.92 L 17.94,1.92 z M 22.02,1.68 L 22.74,1.44 L 22.5,0.72 L 22.26,0.24 L 21.78,0 L 21.3,0 L 20.58,0.24 L 20.1,0.48 L 19.62,1.2 L 19.62,3.12 L 20.1,4.08 L 20.58,4.32 L 21.3,4.56 L 22.26,4.08 L 22.5,3.84 L 22.74,3.36 L 22.02,3.12 L 21.78,3.36 L 21.78,3.6 L 21.54,3.6 L 21.3,3.84 L 20.82,3.6 L 20.58,3.36 L 20.34,2.88 L 20.34,1.68 L 20.58,1.2 C 21.876,0.045 21.65,1.126 22.02,1.68 z M 24.18,0 L 24.18,3.6 L 22.98,3.6 L 22.98,4.56 L 25.86,4.56 L 25.86,3.6 L 24.9,3.6 L 24.9,0 L 24.18,0 z M 27.06,0 L 26.34,0 L 26.34,4.56 L 27.06,4.56 L 27.06,0 z M 28.74,0 L 27.3,4.56 L 28.26,4.56 L 28.98,1.2 L 29.94,4.56 L 30.66,4.56 L 29.46,0 L 28.74,0 z M 31.14,0 L 31.14,4.56 L 33.78,4.56 L 33.78,3.6 L 31.86,3.6 L 31.86,2.64 L 33.54,2.64 L 33.54,1.92 L 31.86,1.92 L 31.86,0.72 L 33.78,0.72 L 33.78,0 L 31.14,0"
         style="fill:#1f1a17;fill-opacity:1;fill-rule:evenodd;stroke:none"
         id="path327" />
    </g>
    <g
       id="g333"
       transform="matrix(1.25,0,0,-1.25,179.04464,805.98183)">
      <path
         d="M 0,0 L 0.48,0 L 0.24,-0.48 L 0,-0.72 L -0.24,-0.72 L -0.48,-0.96 L -1.44,-0.48 L -1.68,-0.24 L -1.68,0.96 L -1.44,1.2 L -0.48,1.68 L -0.24,1.44 L 0.24,1.44 L 0.24,1.2 L 0.48,0.96 L 0,0.72 L -0.24,0.96 L -0.24,1.2 L -0.72,1.2 L -1.2,0.72 L -1.2,0 L -0.72,-0.48 L -0.48,-0.48 L 0,0 z M 0.72,0.24 L 0.72,0.72 L 0.96,0.96 L 0.96,1.2 L 1.2,1.44 L 1.44,1.44 L 1.68,1.68 L 1.92,1.68 L 2.4,1.44 L 2.88,0.96 L 3.12,0.48 L 2.88,-0.24 L 2.4,-0.72 L 1.92,-0.96 L 0.96,-0.48 L 0.72,-0.24 L 0.72,0.24 z M 1.2,0.48 L 1.2,0 L 1.68,-0.48 L 2.16,-0.48 L 2.4,-0.24 L 2.4,0 L 2.64,0.48 L 2.4,0.72 L 2.4,0.96 L 2.16,1.2 L 1.68,1.2 L 1.2,0.72 L 1.2,0.48 z M 3.36,-0.72 L 3.36,1.68 L 3.84,1.68 L 4.8,0 L 4.8,1.68 L 5.22,1.68 L 5.22,-0.72 L 4.8,-0.72 L 3.84,0.72 L 3.84,-0.72 L 3.36,-0.72 z M 6.42,-0.72 L 6.42,1.2 L 5.7,1.2 L 5.7,1.68 L 7.38,1.68 L 7.38,1.2 L 6.9,1.2 L 6.9,-0.72 L 6.42,-0.72 z M 7.86,-0.72 L 7.86,1.68 L 9.54,1.68 L 9.54,1.2 L 8.34,1.2 L 8.34,0.72 L 9.54,0.72 L 9.54,0.24 L 8.34,0.24 L 8.34,-0.48 L 9.54,-0.48 L 9.54,-0.72 L 7.86,-0.72 z M 10.02,-0.72 L 10.02,1.68 L 10.5,1.68 L 11.46,0 L 11.46,1.68 L 11.94,1.68 L 11.94,-0.72 L 11.46,-0.72 L 10.5,0.72 L 10.5,-0.72 L 10.02,-0.72 z M 12.9,-0.72 L 12.9,1.2 L 12.18,1.2 L 12.18,1.68 L 14.1,1.68 L 14.1,1.2 L 13.38,1.2 L 13.38,-0.72 L 12.9,-0.72 z M 14.34,0 L 14.82,0 L 14.82,-0.24 L 15.06,-0.24 L 15.06,-0.48 L 15.78,-0.48 L 15.78,0 L 15.54,0 L 15.54,0.24 L 14.82,0.24 L 14.58,0.48 L 14.58,0.72 L 14.34,0.96 L 14.58,1.2 L 14.58,1.44 L 14.82,1.44 L 15.06,1.68 L 15.3,1.68 L 15.78,1.44 L 16.02,1.44 L 16.26,1.2 L 16.26,0.96 L 15.78,0.96 L 15.54,1.2 L 15.06,1.2 L 14.82,0.96 L 15.06,0.72 L 15.3,0.72 L 15.78,0.48 L 16.02,0.48 L 16.26,0.24 L 16.26,-0.48 L 16.02,-0.72 L 15.78,-0.72 L 15.54,-0.96 L 15.3,-0.96 L 14.82,-0.72 L 14.58,-0.72 L 14.34,-0.48 L 14.34,0 z M 18.18,-0.72 L 17.7,-0.72 L 17.7,-0.48 L 18.18,-0.48 L 18.18,-0.72 z M 18.9,-0.72 L 18.66,-0.72 L 18.66,-0.48 L 18.9,-0.48 L 18.9,-0.72 z M 19.86,-0.72 L 19.38,-0.72 L 19.38,-0.48 L 19.86,-0.48 L 19.86,-0.72 z M 20.82,-0.72 L 20.34,-0.72 L 20.34,-0.48 L 20.82,-0.48 L 20.82,-0.72 z M 21.78,-0.72 L 21.3,-0.72 L 21.3,-0.48 L 21.78,-0.48 L 21.78,-0.72 z M 22.74,-0.72 L 22.26,-0.72 L 22.26,-0.48 L 22.74,-0.48 L 22.74,-0.72 z M 23.7,-0.72 L 23.22,-0.72 L 23.22,-0.48 L 23.7,-0.48 L 23.7,-0.72 z M 24.66,-0.72 L 24.18,-0.72 L 24.18,-0.48 L 24.66,-0.48 L 24.66,-0.72 z M 25.38,-0.72 L 25.14,-0.72 L 25.14,-0.48 L 25.38,-0.48 L 25.38,-0.72 z M 26.34,-0.72 L 25.86,-0.72 L 25.86,-0.48 L 26.34,-0.48 L 26.34,-0.72 z M 27.3,-0.72 L 26.82,-0.72 L 26.82,-0.48 L 27.3,-0.48 L 27.3,-0.72 z M 28.26,-0.72 L 27.78,-0.72 L 27.78,-0.48 L 28.26,-0.48 L 28.26,-0.72 z M 29.22,-0.72 L 28.74,-0.72 L 28.74,-0.48 L 29.22,-0.48 L 29.22,-0.72 z M 30.18,-0.72 L 29.7,-0.72 L 29.7,-0.48 L 30.18,-0.48 L 30.18,-0.72 z M 31.14,-0.72 L 30.66,-0.72 L 30.66,-0.48 L 31.14,-0.48 L 31.14,-0.72 z M 31.86,-0.72 L 31.62,-0.72 L 31.62,-0.48 L 31.86,-0.48 L 31.86,-0.72 z M 32.82,-0.72 L 32.34,-0.72 L 32.34,-0.48 L 32.82,-0.48 L 32.82,-0.72 z M 33.78,-0.72 L 33.3,-0.72 L 33.3,-0.48 L 33.78,-0.48 L 33.78,-0.72 z M 34.74,-0.72 L 34.26,-0.72 L 34.26,-0.48 L 34.74,-0.48 L 34.74,-0.72 z M 35.7,-0.72 L 35.22,-0.72 L 35.22,-0.48 L 35.7,-0.48 L 35.7,-0.72 z M 5.46,-4.56 L 4.8,-4.56 L 4.8,-4.08 L 3.84,-4.08 L 3.6,-4.56 L 3.12,-4.56 L 4.08,-2.16 L 4.56,-2.16 L 5.46,-4.56 z M 4.56,-3.6 L 4.32,-2.64 L 3.84,-3.6 L 4.56,-3.6 z M 7.14,-3.6 L 7.62,-3.84 L 6.9,-4.56 L 6.18,-4.56 L 5.94,-4.32 L 5.7,-3.84 L 5.46,-3.36 L 5.94,-2.4 L 6.18,-2.16 L 7.14,-2.16 L 7.62,-2.64 L 7.62,-2.88 L 7.14,-2.88 L 6.9,-2.64 L 6.18,-2.64 L 6.18,-2.88 L 5.94,-3.36 L 6.18,-3.84 L 6.18,-4.08 L 6.9,-4.08 L 7.14,-3.84 L 7.14,-3.6 z M 8.58,-4.56 L 8.58,-2.64 L 7.86,-2.64 L 7.86,-2.16 L 9.78,-2.16 L 9.78,-2.64 L 9.06,-2.64 L 9.06,-4.56 L 8.58,-4.56 z M 10.5,-4.56 L 10.02,-4.56 L 10.02,-2.16 L 10.5,-2.16 L 10.5,-4.56 z M 11.7,-4.56 L 10.74,-2.16 L 11.22,-2.16 L 11.94,-3.84 L 12.42,-2.16 L 12.9,-2.16 L 12.18,-4.56 L 11.7,-4.56 z M 13.62,-4.56 L 13.14,-4.56 L 13.14,-2.16 L 13.62,-2.16 L 13.62,-4.56 z M 14.58,-4.56 L 14.58,-2.64 L 13.86,-2.64 L 13.86,-2.16 L 15.78,-2.16 L 15.78,-2.64 L 15.06,-2.64 L 15.06,-4.56 L 14.58,-4.56 z M 16.74,-4.56 L 16.74,-3.6 L 16.02,-2.16 L 16.5,-2.16 L 16.98,-3.12 L 17.7,-2.16 L 18.18,-2.16 L 17.22,-3.6 L 17.22,-4.56 L 16.74,-4.56 z M 19.62,-4.56 L 19.14,-4.56 L 19.14,-4.08 L 19.62,-4.08 L 19.62,-4.56 z M 20.58,-4.56 L 20.1,-4.56 L 20.1,-4.08 L 20.58,-4.08 L 20.58,-4.56 z M 21.54,-4.56 L 21.06,-4.56 L 21.06,-4.08 L 21.54,-4.08 L 21.54,-4.56 z M 22.5,-4.56 L 22.02,-4.56 L 22.02,-4.08 L 22.5,-4.08 L 22.5,-4.56 z M 23.46,-4.56 L 22.98,-4.56 L 22.98,-4.08 L 23.46,-4.08 L 23.46,-4.56 z M 24.42,-4.56 L 23.94,-4.56 L 23.94,-4.08 L 24.42,-4.08 L 24.42,-4.56 z M 25.38,-4.56 L 24.9,-4.56 L 24.9,-4.08 L 25.38,-4.08 L 25.38,-4.56 z M 26.1,-4.56 L 25.86,-4.56 L 25.86,-4.08 L 26.1,-4.08 L 26.1,-4.56 z M 27.06,-4.56 L 26.58,-4.56 L 26.58,-4.08 L 27.06,-4.08 L 27.06,-4.56 z M 28.02,-4.56 L 27.54,-4.56 L 27.54,-4.08 L 28.02,-4.08 L 28.02,-4.56 z M 28.98,-4.56 L 28.5,-4.56 L 28.5,-4.08 L 28.98,-4.08 L 28.98,-4.56 z M 29.94,-4.56 L 29.46,-4.56 L 29.46,-4.08 L 29.94,-4.08 L 29.94,-4.56 z M 30.9,-4.56 L 30.42,-4.56 L 30.42,-4.08 L 30.9,-4.08 L 30.9,-4.56 z"
         style="fill:#1f1a17;fill-opacity:1;fill-rule:evenodd;stroke:none"
         id="path335" />
    </g>
    <g
       id="g337"
       transform="matrix(1.25,0,0,-1.25,192.16964,822.48183)">
      <path
         d="M 0,0 L 0,1.68 L -0.72,1.68 L -0.72,2.16 L 0.96,2.16 L 0.96,1.68 L 0.48,1.68 L 0.48,0 L 0,0 z M 1.44,0 L 1.44,2.16 L 2.88,2.16 L 2.88,1.92 L 3.12,1.92 L 3.12,1.44 L 2.88,1.2 L 2.88,0.96 L 2.64,0.96 L 3.12,0.48 L 3.36,0 L 2.88,0 L 2.4,0.48 L 2.4,0.72 L 2.16,0.72 L 2.16,0.96 L 1.68,0.96 L 1.68,0 L 1.44,0 z M 1.68,1.2 L 2.64,1.2 L 2.64,1.68 L 1.68,1.68 L 1.68,1.2 z M 5.52,0 L 5.04,0 L 4.8,0.48 L 3.84,0.48 L 3.84,0 L 3.36,0 L 4.08,2.16 L 4.56,2.16 L 5.52,0 z M 4.56,0.96 L 4.32,1.68 L 4.08,0.96 L 4.56,0.96 z M 5.76,0 L 5.76,2.16 L 6,2.16 L 6.96,0.72 L 6.96,2.16 L 7.44,2.16 L 7.44,0 L 6.96,0 L 6,1.44 L 6,0 L 5.76,0 z M 7.68,0.72 L 8.16,0.72 L 8.16,0.48 L 8.4,0.48 L 8.4,0.24 L 8.88,0.24 L 8.88,0.48 L 9.12,0.48 L 9.12,0.72 L 8.88,0.72 L 8.88,0.96 L 8.16,0.96 L 7.92,1.2 L 7.92,1.92 L 8.16,2.16 L 8.88,2.16 L 9.36,1.68 L 9.36,1.44 L 8.88,1.44 L 8.88,1.92 L 8.4,1.92 L 8.4,1.68 L 8.16,1.68 L 8.16,1.44 L 8.64,1.44 L 8.88,1.2 L 9.36,1.2 L 9.36,0.72 L 9.6,0.72 L 9.36,0.48 L 9.36,0.24 L 9.12,0 L 8.16,0 L 7.92,0.24 L 7.92,0.48 L 7.68,0.72 z M 9.84,0 L 9.84,2.16 L 11.04,2.16 L 11.52,1.68 L 11.52,1.2 L 11.28,0.96 L 11.04,0.96 L 11.04,0.72 L 10.32,0.72 L 10.32,0 L 9.84,0 z M 11.04,1.68 L 10.32,1.68 L 10.32,1.2 L 11.04,1.2 L 11.04,1.68 z M 11.76,0.96 L 11.76,1.68 L 12,1.68 L 12,1.92 L 12.24,1.92 L 12.24,2.16 L 13.2,2.16 L 13.68,1.92 L 13.68,1.44 L 13.92,0.96 L 13.68,0.72 L 13.68,0.24 L 13.2,0 L 12.48,0 L 12,0.24 L 11.76,0.72 L 11.76,0.96 z M 12.24,0.96 L 12.24,0.72 L 12.72,0.24 L 12.96,0.48 L 13.2,0.48 L 13.44,0.72 L 13.44,1.44 L 13.2,1.68 L 12.96,1.68 L 12.72,1.92 L 12.24,1.44 L 12.24,0.96 z M 14.16,0 L 14.16,2.16 L 15.6,2.16 L 15.84,1.92 L 15.84,1.2 L 15.6,0.96 L 15.36,0.96 L 15.6,0.96 L 15.6,0.72 L 15.84,0.72 L 15.84,0.48 L 16.08,0 L 15.6,0 L 15.36,0.48 L 14.88,0.96 L 14.64,0.96 L 14.64,0 L 14.16,0 z M 14.64,1.2 L 15.36,1.2 L 15.36,1.44 L 15.6,1.44 L 15.6,1.68 L 14.64,1.68 L 14.64,1.2 z M 16.8,0 L 16.8,1.68 L 16.32,1.68 L 16.32,2.16 L 18,2.16 L 18,1.68 L 17.28,1.68 L 17.28,0 L 16.8,0 z M 4.32,-3.12 L 3.84,-3.12 L 3.84,-0.96 L 4.32,-0.96 L 4.32,-3.12 z M 4.8,-3.12 L 4.8,-0.96 L 5.28,-0.96 L 6,-2.4 L 6,-0.96 L 6.48,-0.96 L 6.48,-3.12 L 6,-3.12 L 5.04,-1.68 L 5.04,-3.12 L 4.8,-3.12 z M 6.96,-0.96 L 8.4,-0.96 L 8.4,-1.2 L 8.64,-1.2 C 8.64,-1.6 8.64,-2 8.64,-2.4 L 8.64,-2.64 L 8.16,-3.12 L 6.96,-3.12 L 6.96,-0.96 z M 7.44,-1.2 L 7.44,-2.64 L 8.16,-2.64 C 8.16,-2.24 8.16,-1.84 8.16,-1.44 L 7.92,-1.44 L 7.92,-1.2 L 7.44,-1.2 z M 9.12,-3.12 L 9.12,-0.96 L 10.56,-0.96 L 10.56,-1.2 L 9.6,-1.2 L 9.6,-1.68 L 10.56,-1.68 L 10.56,-2.16 L 9.6,-2.16 L 9.6,-2.64 L 10.8,-2.64 L 10.8,-3.12 L 9.12,-3.12 z M 10.8,-3.12 L 11.52,-1.92 L 11.04,-0.96 L 11.52,-0.96 L 11.76,-1.68 L 12.24,-0.96 L 12.72,-0.96 L 12.24,-1.92 L 12.96,-3.12 L 12.24,-3.12 L 11.76,-2.4 L 11.28,-3.12 L 10.8,-3.12"
         style="fill:#1f1a17;fill-opacity:1;fill-rule:evenodd;stroke:none"
         id="path339" />
    </g>
    <g
       id="g373"
       transform="matrix(1.25,0,0,-1.25,188.86964,777.25683)">
      <path
         d="M 0,0 C -0.568,4.36 2.42,8.238 6,10.32 L 9.84,3.84 L 8.88,3.12 L 7.92,1.2 L 7.68,0 L 0,0"
         style="fill:#1f1a17;fill-opacity:1;fill-rule:evenodd;stroke:none"
         id="path375" />
    </g>
    <g
       id="g377"
       transform="matrix(1.25,0,0,-1.25,188.86964,777.25683)">
      <path
         d="M 0,0 C -0.568,4.36 2.42,8.238 6,10.32 L 9.84,3.84 L 8.88,3.12 L 7.92,1.2 L 7.68,0 L 0,0"
         style="fill:none;stroke:#1f1a17;stroke-width:0.23999999;stroke-linecap:round;stroke-linejoin:round;stroke-miterlimit:10;stroke-dasharray:none;stroke-opacity:1"
         id="path379" />
    </g>
    <g
       id="g381"
       transform="matrix(1.25,0,0,-1.25,210.76964,764.35683)">
      <path
         d="M 0,0 L 1.44,-0.96 L 3.84,-3.36 L 5.28,-5.76 L 5.52,-7.2 L 6,-8.64 L 6,-10.32 L -1.44,-10.32 L -1.68,-9.36 L -2.16,-8.16 L -3.6,-6.72 L 0,0"
         style="fill:#1f1a17;fill-opacity:1;fill-rule:evenodd;stroke:none"
         id="path383" />
    </g>
    <g
       id="g385"
       transform="matrix(1.25,0,0,-1.25,210.76964,764.35683)">
      <path
         d="M 0,0 L 1.44,-0.96 L 3.84,-3.36 L 5.28,-5.76 L 5.52,-7.2 L 6,-8.64 L 6,-10.32 L -1.44,-10.32 L -1.68,-9.36 L -2.16,-8.16 L -3.6,-6.72 L 0,0"
         style="fill:none;stroke:#1f1a17;stroke-width:0.23999999;stroke-linecap:round;stroke-linejoin:round;stroke-miterlimit:10;stroke-dasharray:none;stroke-opacity:1"
         id="path387" />
    </g>
    <g
       id="g389"
       transform="matrix(1.25,0,0,-1.25,211.06964,790.08183)">
      <path
         d="M 0,0 C -4.097,-2.168 -7.928,-2.224 -12,0 L -8.4,6.42 L -7.2,6.18 L -6.24,5.94 L -5.04,6.18 L -4.08,6.66 L 0,0"
         style="fill:#1f1a17;fill-opacity:1;fill-rule:evenodd;stroke:none"
         id="path391" />
    </g>
    <g
       id="g393"
       transform="matrix(1.25,0,0,-1.25,211.06964,790.08183)">
      <path
         d="M 0,0 C -4.097,-2.168 -7.928,-2.224 -12,0 L -8.4,6.42 L -7.2,6.18 L -6.24,5.94 L -5.04,6.18 L -4.08,6.66 L 0,0 z"
         style="fill:none;stroke:#1f1a17;stroke-width:0.23999999;stroke-linecap:round;stroke-linejoin:round;stroke-miterlimit:10;stroke-dasharray:none;stroke-opacity:1"
         id="path395" />
    </g>
    <g
       id="g397"
       transform="matrix(1.25,0,0,-1.25,203.56964,773.35683)">
      <path
         d="M 0,0 C 4.069,-0.174 4.298,-6.181 0,-6.24 C -2.247,-6.092 -2.973,-5.367 -3.12,-3.12 C -3.011,-1.254 -1.988,0.053 0,0"
         style="fill:#1f1a17;fill-opacity:1;fill-rule:evenodd;stroke:none"
         id="path399" />
    </g>
    <g
       id="g401"
       transform="matrix(1.25,0,0,-1.25,203.56964,773.35683)">
      <path
         d="M 0,0 C 4.069,-0.174 4.298,-6.181 0,-6.24 C -2.247,-6.092 -2.973,-5.367 -3.12,-3.12 C -3.011,-1.254 -1.988,0.053 0,0 z"
         style="fill:none;stroke:#1f1a17;stroke-width:0.23999999;stroke-linecap:round;stroke-linejoin:round;stroke-miterlimit:10;stroke-dasharray:none;stroke-opacity:1"
         id="path403" />
    </g>
    <path
       d="M 215.82131,827.20382 L 189.42131,827.20382 L 189.42131,812.80382 L 215.82131,812.80382 L 215.82131,827.20382 z"
       style="fill:none;stroke:#1f1a17;stroke-width:0.59999996;stroke-linecap:round;stroke-linejoin:round;stroke-miterlimit:10;stroke-dasharray:none;stroke-opacity:1"
       id="path441" />
  </g>
</svg>
