<?xml version="1.0" encoding="UTF-8" standalone="no"?>
<!-- Created with Inkscape (http://www.inkscape.org/) -->
<svg
   xmlns:dc="http://purl.org/dc/elements/1.1/"
   xmlns:cc="http://creativecommons.org/ns#"
   xmlns:rdf="http://www.w3.org/1999/02/22-rdf-syntax-ns#"
   xmlns:svg="http://www.w3.org/2000/svg"
   xmlns="http://www.w3.org/2000/svg"
   xmlns:sodipodi="http://sodipodi.sourceforge.net/DTD/sodipodi-0.dtd"
   xmlns:inkscape="http://www.inkscape.org/namespaces/inkscape"
   width="108.525"
   height="108.225"
   id="svg2971"
   sodipodi:version="0.32"
   inkscape:version="0.46"
   version="1.0"
   sodipodi:docname="ADR_7C.svg"
   inkscape:output_extension="org.inkscape.output.svg.inkscape">
  <defs
     id="defs2973">
    <inkscape:perspective
       sodipodi:type="inkscape:persp3d"
       inkscape:vp_x="0 : 526.18109 : 1"
       inkscape:vp_y="0 : 1000 : 0"
       inkscape:vp_z="744.09448 : 526.18109 : 1"
       inkscape:persp3d-origin="372.04724 : 350.78739 : 1"
       id="perspective2979" />
  </defs>
  <sodipodi:namedview
     id="base"
     pagecolor="#ffffff"
     bordercolor="#666666"
     borderopacity="1.0"
     inkscape:pageopacity="0.0"
     inkscape:pageshadow="2"
     inkscape:zoom="4.2688843"
     inkscape:cx="54.262501"
     inkscape:cy="54.112499"
     inkscape:document-units="px"
     inkscape:current-layer="layer1"
     showgrid="false"
     inkscape:window-width="640"
     inkscape:window-height="675"
     inkscape:window-x="176"
     inkscape:window-y="176" />
  <metadata
     id="metadata2976">
    <rdf:RDF>
      <cc:Work
         rdf:about="">
        <dc:format>image/svg+xml</dc:format>
        <dc:type
           rdf:resource="http://purl.org/dc/dcmitype/StillImage" />
      </cc:Work>
    </rdf:RDF>
  </metadata>
  <g
     inkscape:label="Calque 1"
     inkscape:groupmode="layer"
     id="layer1"
     transform="translate(-314.30893,204.60746)">
    <g
       id="g425"
       transform="matrix(1.25,0,0,-1.25,318.50893,-147.68246)">
      <path
         d="M 0,0 L -0.72,-0.48 L -3.12,1.92 L -2.64,2.64 L 0,0 z M 4.08,-4.08 L 3.6,-4.56 L 0.96,-2.16 L 1.44,-1.44 L 4.08,-4.08 z M 8.16,-8.16 L 7.68,-8.64 L 5.04,-6 L 5.52,-5.52 L 8.16,-8.16 z M 12.24,-12.24 L 11.76,-12.72 L 9.12,-10.08 L 9.6,-9.6 L 12.24,-12.24 z M 16.32,-16.32 L 15.84,-16.8 L 13.2,-14.16 L 13.68,-13.68 L 16.32,-16.32 z M 20.4,-20.4 L 19.92,-20.88 L 17.28,-18.24 L 17.76,-17.76 L 20.4,-20.4 z M 24.48,-24.48 L 24,-24.96 L 21.36,-22.32 L 21.84,-21.84 L 24.48,-24.48 z M 28.56,-28.56 L 28.08,-29.04 L 25.44,-26.4 L 25.92,-25.92 L 28.56,-28.56 z M 32.64,-32.64 L 32.16,-33.12 L 29.52,-30.48 L 30,-30 L 32.64,-32.64 z M 36.72,-36.48 L 36.24,-37.2 L 33.6,-34.56 L 34.08,-34.08 L 36.72,-36.48 z M 40.56,-40.8 L 40.08,-40.8 L 37.68,-38.64 L 38.16,-38.16 L 40.56,-40.32 L 40.56,-40.8 z M 40.56,-40.8 L 40.32,-41.04 L 40.08,-40.8 L 40.56,-40.8 z M 40.32,-40.08 L 40.8,-40.56 L 40.56,-40.8 L 40.08,-40.32 L 40.32,-40.08 z M 44.4,-36 L 44.88,-36.48 L 42.24,-39.12 L 41.76,-38.64 L 44.4,-36 z M 48.48,-31.92 L 48.96,-32.4 L 46.32,-35.04 L 45.84,-34.56 L 48.48,-31.92 z M 52.56,-27.84 L 53.04,-28.32 L 50.4,-30.96 L 49.92,-30.48 L 52.56,-27.84 z M 56.64,-23.76 L 57.12,-24.24 L 54.48,-26.88 L 54,-26.4 L 56.64,-23.76 z M 60.72,-19.68 L 61.2,-20.16 L 58.56,-22.8 L 58.08,-22.32 L 60.72,-19.68 z M 64.8,-15.6 L 65.28,-16.08 L 62.64,-18.72 L 62.16,-18.24 L 64.8,-15.6 z M 68.88,-11.52 L 69.36,-12 L 66.72,-14.64 L 66.24,-14.16 L 68.88,-11.52 z M 72.96,-7.44 L 73.44,-7.92 L 70.8,-10.56 L 70.32,-10.08 L 72.96,-7.44 z M 77.04,-3.36 L 77.52,-3.84 L 74.88,-6.48 L 74.4,-6 L 77.04,-3.36 z M 81.06,0.72 L 81.54,0.24 L 78.96,-2.4 L 78.48,-1.92 L 81.06,0.72 z M 83.22,2.64 L 83.22,1.92 L 82.98,1.68 L 82.5,2.16 L 82.74,2.64 L 83.22,2.64 z M 83.22,2.64 L 83.46,2.16 L 83.22,1.92 L 83.22,2.64 z M 80.58,4.32 L 81.06,4.8 L 83.22,2.64 L 82.74,1.92 L 80.58,4.32 z M 76.56,8.4 L 77.04,8.88 L 79.62,6.24 L 79.2,5.76 L 76.56,8.4 z M 72.48,12.42 L 72.96,12.9 L 75.6,10.32 L 75.12,9.84 L 72.48,12.42 z M 68.4,16.5 L 68.88,16.98 L 71.52,14.34 L 71.04,13.86 L 68.4,16.5 z M 64.32,20.58 L 64.8,21.06 L 67.44,18.42 L 66.96,17.94 L 64.32,20.58 z M 60.24,24.66 L 60.72,25.14 L 63.36,22.5 L 62.88,22.02 L 60.24,24.66 z M 56.16,28.74 L 56.64,29.22 L 59.28,26.58 L 58.8,26.1 L 56.16,28.74 z M 52.08,32.82 L 52.56,33.3 L 55.2,30.66 L 54.72,30.18 L 52.08,32.82 z M 48,36.9 L 48.48,37.38 L 51.12,34.74 L 50.64,34.26 L 48,36.9 z M 43.92,40.74 L 44.4,41.46 L 47.04,38.82 L 46.56,38.34 L 43.92,40.74 z M 40.08,45.3 L 40.56,45.3 L 42.96,42.9 L 42.48,42.42 L 40.08,44.82 L 40.08,45.3 z M 40.08,45.3 L 40.32,45.54 L 40.56,45.3 L 40.08,45.3 z M 40.32,44.82 L 39.84,45.3 L 40.08,45.3 L 40.56,44.82 L 40.32,44.82 z M 36.24,40.74 L 35.76,41.22 L 38.4,43.62 L 38.88,43.14 L 36.24,40.74 z M 32.16,36.66 L 31.68,37.14 L 34.32,39.54 L 34.8,39.06 L 32.16,36.66 z M 28.08,32.58 L 27.6,33.06 L 30.24,35.7 L 30.72,34.98 L 28.08,32.58 z M 24,28.5 L 23.52,28.98 L 26.16,31.62 L 26.64,30.9 L 24,28.5 z M 19.92,24.42 L 19.44,24.9 L 22.08,27.54 L 22.56,27.06 L 19.92,24.42 z M 15.84,20.34 L 15.36,20.82 L 18,23.46 L 18.48,22.98 L 15.84,20.34 z M 11.76,16.26 L 11.28,16.74 L 13.92,19.38 L 14.4,18.9 L 11.76,16.26 z M 7.68,12.18 L 7.2,12.66 L 9.84,15.3 L 10.32,14.82 L 7.68,12.18 z M 3.6,8.16 L 3.12,8.64 L 5.76,11.22 L 6.24,10.74 L 3.6,8.16 z M -0.48,4.08 L -0.96,4.56 L 1.44,7.2 L 2.16,6.72 L -0.48,4.08 z M -3.12,1.92 L -3.12,2.64 L -2.64,3.12 L -1.92,2.64 L -2.64,1.92 L -3.12,1.92 z M -3.12,1.92 L -3.36,2.16 L -3.12,2.64 L -3.12,1.92"
         style="fill:#1f1a17;fill-opacity:1;fill-rule:nonzero;stroke:none"
         id="path427" />
    </g>
    <g
       id="g429"
       transform="matrix(1.25,0,0,-1.25,322.10893,-150.38246)">
      <path
         d="M 0,0 L 37.44,37.38 L 74.4,0.24 L 0,0"
         style="fill:#fff600;fill-opacity:1;fill-rule:evenodd;stroke:none"
         id="path431" />
    </g>
    <g
       id="g433"
       transform="matrix(1.25,0,0,-1.25,366.50893,-115.88246)">
      <path
         d="M 0,0 L 5.04,0 L 5.04,-0.96 L 3.84,-2.4 L 3.12,-3.6 L 2.64,-5.04 L 2.4,-6.72 L 0.96,-6.72 L 1.2,-5.28 L 1.68,-3.84 L 2.4,-2.4 L 3.36,-1.2 L 0,-1.2 L 0,0"
         style="fill:#1f1a17;fill-opacity:1;fill-rule:evenodd;stroke:none"
         id="path435" />
    </g>
    <g
       id="g437"
       transform="matrix(1.25,0,0,-1.25,366.50893,-115.88246)">
      <path
         d="M 0,0 L 5.04,0 L 5.04,-0.96 L 3.84,-2.4 L 3.12,-3.6 L 2.64,-5.04 L 2.4,-6.72 L 0.96,-6.72 L 1.2,-5.28 L 1.68,-3.84 L 2.4,-2.4 L 3.36,-1.2 L 0,-1.2 L 0,0"
         style="fill:none;stroke:#1f1a17;stroke-width:0.23999999;stroke-linecap:round;stroke-linejoin:round;stroke-miterlimit:10;stroke-dasharray:none;stroke-opacity:1"
         id="path439" />
    </g>
    <path
       d="M 382.10893,-118.28246 L 355.70893,-118.28246 L 355.70893,-132.68246 L 382.10893,-132.68246 L 382.10893,-118.28246 z"
       style="fill:none;stroke:#1f1a17;stroke-width:0.59999996;stroke-linecap:round;stroke-linejoin:round;stroke-miterlimit:10;stroke-dasharray:none;stroke-opacity:1"
       id="path441" />
    <g
       id="g443"
       transform="matrix(1.25,0,0,-1.25,318.50893,-147.68246)">
      <path
         d="M 0,0 L -0.72,-0.48 L -3.12,1.92 L -2.64,2.64 L 0,0 z M 4.08,-4.08 L 3.6,-4.56 L 0.96,-2.16 L 1.44,-1.44 L 4.08,-4.08 z M 8.16,-8.16 L 7.68,-8.64 L 5.04,-6 L 5.52,-5.52 L 8.16,-8.16 z M 12.24,-12.24 L 11.76,-12.72 L 9.12,-10.08 L 9.6,-9.6 L 12.24,-12.24 z M 16.32,-16.32 L 15.84,-16.8 L 13.2,-14.16 L 13.68,-13.68 L 16.32,-16.32 z M 20.4,-20.4 L 19.92,-20.88 L 17.28,-18.24 L 17.76,-17.76 L 20.4,-20.4 z M 24.48,-24.48 L 24,-24.96 L 21.36,-22.32 L 21.84,-21.84 L 24.48,-24.48 z M 28.56,-28.56 L 28.08,-29.04 L 25.44,-26.4 L 25.92,-25.92 L 28.56,-28.56 z M 32.64,-32.64 L 32.16,-33.12 L 29.52,-30.48 L 30,-30 L 32.64,-32.64 z M 36.72,-36.48 L 36.24,-37.2 L 33.6,-34.56 L 34.08,-34.08 L 36.72,-36.48 z M 40.56,-40.8 L 40.08,-40.8 L 37.68,-38.64 L 38.16,-38.16 L 40.56,-40.32 L 40.56,-40.8 z M 40.56,-40.8 L 40.32,-41.04 L 40.08,-40.8 L 40.56,-40.8 z M 40.32,-40.08 L 40.8,-40.56 L 40.56,-40.8 L 40.08,-40.32 L 40.32,-40.08 z M 44.4,-36 L 44.88,-36.48 L 42.24,-39.12 L 41.76,-38.64 L 44.4,-36 z M 48.48,-31.92 L 48.96,-32.4 L 46.32,-35.04 L 45.84,-34.56 L 48.48,-31.92 z M 52.56,-27.84 L 53.04,-28.32 L 50.4,-30.96 L 49.92,-30.48 L 52.56,-27.84 z M 56.64,-23.76 L 57.12,-24.24 L 54.48,-26.88 L 54,-26.4 L 56.64,-23.76 z M 60.72,-19.68 L 61.2,-20.16 L 58.56,-22.8 L 58.08,-22.32 L 60.72,-19.68 z M 64.8,-15.6 L 65.28,-16.08 L 62.64,-18.72 L 62.16,-18.24 L 64.8,-15.6 z M 68.88,-11.52 L 69.36,-12 L 66.72,-14.64 L 66.24,-14.16 L 68.88,-11.52 z M 72.96,-7.44 L 73.44,-7.92 L 70.8,-10.56 L 70.32,-10.08 L 72.96,-7.44 z M 77.04,-3.36 L 77.52,-3.84 L 74.88,-6.48 L 74.4,-6 L 77.04,-3.36 z M 81.06,0.72 L 81.54,0.24 L 78.96,-2.4 L 78.48,-1.92 L 81.06,0.72 z M 83.22,2.64 L 83.22,1.92 L 82.98,1.68 L 82.5,2.16 L 82.74,2.64 L 83.22,2.64 z M 83.22,2.64 L 83.46,2.16 L 83.22,1.92 L 83.22,2.64 z M 80.58,4.32 L 81.06,4.8 L 83.22,2.64 L 82.74,1.92 L 80.58,4.32 z M 76.56,8.4 L 77.04,8.88 L 79.62,6.24 L 79.2,5.76 L 76.56,8.4 z M 72.48,12.42 L 72.96,12.9 L 75.6,10.32 L 75.12,9.84 L 72.48,12.42 z M 68.4,16.5 L 68.88,16.98 L 71.52,14.34 L 71.04,13.86 L 68.4,16.5 z M 64.32,20.58 L 64.8,21.06 L 67.44,18.42 L 66.96,17.94 L 64.32,20.58 z M 60.24,24.66 L 60.72,25.14 L 63.36,22.5 L 62.88,22.02 L 60.24,24.66 z M 56.16,28.74 L 56.64,29.22 L 59.28,26.58 L 58.8,26.1 L 56.16,28.74 z M 52.08,32.82 L 52.56,33.3 L 55.2,30.66 L 54.72,30.18 L 52.08,32.82 z M 48,36.9 L 48.48,37.38 L 51.12,34.74 L 50.64,34.26 L 48,36.9 z M 43.92,40.74 L 44.4,41.46 L 47.04,38.82 L 46.56,38.34 L 43.92,40.74 z M 40.08,45.3 L 40.56,45.3 L 42.96,42.9 L 42.48,42.42 L 40.08,44.82 L 40.08,45.3 z M 40.08,45.3 L 40.32,45.54 L 40.56,45.3 L 40.08,45.3 z M 40.32,44.82 L 39.84,45.3 L 40.08,45.3 L 40.56,44.82 L 40.32,44.82 z M 36.24,40.74 L 35.76,41.22 L 38.4,43.62 L 38.88,43.14 L 36.24,40.74 z M 32.16,36.66 L 31.68,37.14 L 34.32,39.54 L 34.8,39.06 L 32.16,36.66 z M 28.08,32.58 L 27.6,33.06 L 30.24,35.7 L 30.72,34.98 L 28.08,32.58 z M 24,28.5 L 23.52,28.98 L 26.16,31.62 L 26.64,30.9 L 24,28.5 z M 19.92,24.42 L 19.44,24.9 L 22.08,27.54 L 22.56,27.06 L 19.92,24.42 z M 15.84,20.34 L 15.36,20.82 L 18,23.46 L 18.48,22.98 L 15.84,20.34 z M 11.76,16.26 L 11.28,16.74 L 13.92,19.38 L 14.4,18.9 L 11.76,16.26 z M 7.68,12.18 L 7.2,12.66 L 9.84,15.3 L 10.32,14.82 L 7.68,12.18 z M 3.6,8.16 L 3.12,8.64 L 5.76,11.22 L 6.24,10.74 L 3.6,8.16 z M -0.48,4.08 L -0.96,4.56 L 1.44,7.2 L 2.16,6.72 L -0.48,4.08 z M -3.12,1.92 L -3.12,2.64 L -2.64,3.12 L -1.92,2.64 L -2.64,1.92 L -3.12,1.92 z M -3.12,1.92 L -3.36,2.16 L -3.12,2.64 L -3.12,1.92"
         style="fill:#1f1a17;fill-opacity:1;fill-rule:nonzero;stroke:none"
         id="path445" />
    </g>
    <g
       id="g447"
       transform="matrix(1.25,0,0,-1.25,322.70893,-150.68246)">
      <path
         d="M 0,0 L 73.92,0"
         style="fill:none;stroke:#1f1a17;stroke-width:0.47999999;stroke-linecap:round;stroke-linejoin:round;stroke-miterlimit:10;stroke-dasharray:none;stroke-opacity:1"
         id="path449" />
    </g>
    <g
       id="g451"
       transform="matrix(1.25,0,0,-1.25,321.80893,-150.68246)">
      <path
         d="M 0,0 L 37.44,-37.2 L 74.64,0 L 37.44,37.14 L 0,0 z"
         style="fill:none;stroke:#1f1a17;stroke-width:0.71899998;stroke-linecap:round;stroke-linejoin:round;stroke-miterlimit:10;stroke-dasharray:none;stroke-opacity:1"
         id="path453" />
    </g>
    <g
       id="g455"
       transform="matrix(1.25,0,0,-1.25,341.60893,-142.88246)">
      <path
         d="M 0,0 L 0,4.32 C 1.053,4.291 2.137,4.577 2.88,3.84 L 2.88,2.64 L 2.64,2.16 L 2.4,1.92 L 1.92,1.92 C 3.023,0.903 2.471,1.226 3.36,0 L 2.4,0 L 1.92,0.96 L 1.44,1.44 L 1.44,1.68 L 0.72,1.68 L 0.72,0 L 0,0 z M 0.72,2.4 L 1.92,2.4 L 2.16,2.64 L 2.16,3.36 L 1.92,3.6 L 0.72,3.6 L 0.72,2.4 z M 6.96,0 L 6,0 L 5.76,0.96 L 4.32,0.96 L 4.08,0 L 3.36,0 L 4.56,4.32 L 5.52,4.32 L 6.96,0 z M 5.52,1.68 L 5.04,3.36 L 4.56,1.68 L 5.52,1.68 z M 7.2,4.32 C 9.287,4.434 10.196,4.369 10.32,2.16 L 10.32,1.44 L 10.08,1.2 L 10.08,0.72 L 9.36,0 L 7.2,0 L 7.2,4.32 z M 7.92,3.6 L 7.92,0.72 L 9.12,0.72 L 9.36,0.96 L 9.36,1.44 L 9.6,1.68 L 9.6,2.64 L 9.36,2.88 L 9.36,3.12 L 8.88,3.6 L 7.92,3.6 z M 11.52,0 L 10.8,0 L 10.8,4.32 L 11.52,4.32 L 11.52,0 z M 12,2.16 L 12.24,2.88 L 12.24,3.36 L 12.96,4.08 L 13.44,4.32 L 14.64,4.32 L 15.12,3.84 L 15.36,3.12 C 16.343,-0.313 12.757,-1.817 12,2.16 z M 12.96,2.16 L 12.96,1.44 L 13.2,0.96 L 13.44,0.72 L 14.16,0.72 L 14.64,0.96 L 14.88,1.44 L 14.88,2.88 L 14.64,3.36 L 14.16,3.6 L 13.44,3.6 L 13.2,3.36 L 12.96,2.88 L 12.96,2.16 z M 19.44,0 L 18.48,0 L 18.24,0.96 L 16.8,0.96 L 16.56,0 L 15.84,0 L 17.28,4.32 L 18,4.32 L 19.44,0 z M 18,1.68 L 17.52,3.36 L 17.04,1.68 L 18,1.68 z M 22.08,1.44 L 22.8,1.2 C 21.757,-1.264 19.499,-0.081 19.68,2.16 C 19.323,4.38 21.921,5.358 22.8,3.12 L 22.08,2.88 L 21.84,3.12 L 21.84,3.36 L 21.6,3.6 L 20.88,3.6 L 20.64,3.36 L 20.4,2.88 C 20.402,1.578 20.125,0.454 21.84,0.72 L 21.84,1.2 L 22.08,1.44 z M 24.24,0 L 24.24,3.6 L 23.04,3.6 L 23.04,4.32 L 25.92,4.32 L 25.92,3.6 L 24.96,3.6 L 24.96,0 L 24.24,0 z M 27.12,0 L 26.4,0 L 26.4,4.32 L 27.12,4.32 L 27.12,0 z M 28.8,0 L 27.36,4.32 L 28.32,4.32 L 29.04,0.96 L 30,4.32 L 30.72,4.32 L 29.52,0 L 28.8,0 z M 31.2,0 L 31.2,4.32 L 33.84,4.32 L 33.84,3.6 L 31.92,3.6 L 31.92,2.64 L 33.6,2.64 L 33.6,1.92 L 31.92,1.92 L 31.92,0.72 L 33.84,0.72 L 33.84,0 L 31.2,0"
         style="fill:#1f1a17;fill-opacity:1;fill-rule:evenodd;stroke:none"
         id="path457" />
    </g>
    <g
       id="g459"
       transform="matrix(1.25,0,0,-1.25,344.90893,-139.88246)">
      <path
         d="M 0,0 L 0.48,-0.24 L -0.24,-0.96 L -0.96,-0.96 L -1.44,-0.72 L -1.68,-0.24 C -1.91,1.301 -1.068,1.877 0.24,1.2 L 0.24,0.96 L 0.48,0.72 L -0.24,0.72 L -0.24,0.96 L -0.96,0.96 L -1.2,0.48 L -1.2,-0.24 L -0.96,-0.48 L -0.72,-0.48 L -0.48,-0.72 L -0.48,-0.48 L -0.24,-0.48 L -0.24,-0.24 L 0,0 z M 0.72,0.24 L 0.72,0.72 L 0.96,0.96 L 0.96,1.2 L 1.2,1.2 L 1.44,1.44 L 2.4,1.44 L 2.64,1.2 L 3.12,0.24 L 2.64,-0.72 L 2.4,-0.96 L 1.44,-0.96 L 0.96,-0.72 L 0.72,-0.24 L 0.72,0.24 z M 1.2,0.24 L 1.2,-0.24 L 1.44,-0.48 L 1.68,-0.48 L 1.92,-0.72 L 2.16,-0.48 L 2.4,-0.48 L 2.4,-0.24 L 2.64,0.24 L 2.4,0.48 L 2.4,0.72 L 2.16,0.96 L 1.68,0.96 L 1.2,0.48 L 1.2,0.24 z M 3.36,-0.96 L 3.36,1.44 L 3.84,1.44 L 4.8,-0.24 L 4.8,1.44 L 5.28,1.44 L 5.28,-0.96 L 4.8,-0.96 L 3.84,0.48 L 3.84,-0.96 L 3.36,-0.96 z M 6.24,-0.96 L 6.24,0.96 L 5.76,0.96 L 5.76,1.44 L 7.44,1.44 L 7.44,0.96 L 6.72,0.96 L 6.72,-0.96 L 6.24,-0.96 z M 7.92,-0.96 L 7.92,1.44 L 9.6,1.44 L 9.6,0.96 L 8.4,0.96 L 8.4,0.48 L 9.6,0.48 L 9.6,0 L 8.4,0 L 8.4,-0.48 L 9.6,-0.48 L 9.6,-0.96 L 7.92,-0.96 z M 10.08,-0.96 L 10.08,1.44 L 10.56,1.44 L 11.52,-0.24 L 11.52,1.44 L 12,1.44 L 12,-0.96 L 11.52,-0.96 L 10.56,0.48 L 10.56,-0.96 L 10.08,-0.96 z M 12.96,-0.96 L 12.96,0.96 L 12.24,0.96 L 12.24,1.44 L 14.16,1.44 L 14.16,0.96 L 13.44,0.96 L 13.44,-0.96 L 12.96,-0.96 z M 14.4,-0.24 L 14.88,-0.24 L 14.88,-0.48 L 15.12,-0.48 L 15.36,-0.72 L 15.6,-0.48 L 15.84,-0.48 L 15.84,0 L 15.36,0 L 14.88,0.24 L 14.64,0.24 L 14.64,0.48 L 14.4,0.72 L 14.4,0.96 L 14.88,1.44 L 15.84,1.44 L 16.32,0.96 L 16.32,0.72 L 15.84,0.72 L 15.84,0.96 L 14.88,0.96 L 14.88,0.72 L 15.12,0.72 L 15.12,0.48 C 16.066,0.631 16.436,0.149 16.32,-0.72 L 16.08,-0.72 L 15.84,-0.96 L 14.88,-0.96 L 14.4,-0.48 L 14.4,-0.24 z M 18.24,-0.96 L 17.76,-0.96 L 17.76,-0.48 L 18.24,-0.48 L 18.24,-0.96 z M 18.96,-0.96 L 18.48,-0.96 L 18.48,-0.48 L 18.96,-0.48 L 18.96,-0.96 z M 19.92,-0.96 L 19.44,-0.96 L 19.44,-0.48 L 19.92,-0.48 L 19.92,-0.96 z M 20.88,-0.96 L 20.4,-0.96 L 20.4,-0.48 L 20.88,-0.48 L 20.88,-0.96 z M 21.84,-0.96 L 21.36,-0.96 L 21.36,-0.48 L 21.84,-0.48 L 21.84,-0.96 z M 22.8,-0.96 L 22.32,-0.96 L 22.32,-0.48 L 22.8,-0.48 L 22.8,-0.96 z M 23.76,-0.96 L 23.28,-0.96 L 23.28,-0.48 L 23.76,-0.48 L 23.76,-0.96 z M 24.72,-0.96 L 24.24,-0.96 L 24.24,-0.48 L 24.72,-0.48 L 24.72,-0.96 z M 25.44,-0.96 L 24.96,-0.96 L 24.96,-0.48 L 25.44,-0.48 L 25.44,-0.96 z M 26.4,-0.96 L 25.92,-0.96 L 25.92,-0.48 L 26.4,-0.48 L 26.4,-0.96 z M 27.36,-0.96 L 26.88,-0.96 L 26.88,-0.48 L 27.36,-0.48 L 27.36,-0.96 z M 28.32,-0.96 L 27.84,-0.96 L 27.84,-0.48 L 28.32,-0.48 L 28.32,-0.96 z M 29.28,-0.96 L 28.8,-0.96 L 28.8,-0.48 L 29.28,-0.48 L 29.28,-0.96 z M 30.24,-0.96 L 29.76,-0.96 L 29.76,-0.48 L 30.24,-0.48 L 30.24,-0.96 z M 31.2,-0.96 L 30.72,-0.96 L 30.72,-0.48 L 31.2,-0.48 L 31.2,-0.96 z M 31.92,-0.96 L 31.68,-0.96 L 31.68,-0.48 L 31.92,-0.48 L 31.92,-0.96 z M 32.88,-0.96 L 32.4,-0.96 L 32.4,-0.48 L 32.88,-0.48 L 32.88,-0.96 z M 33.84,-0.96 L 33.36,-0.96 L 33.36,-0.48 L 33.84,-0.48 L 33.84,-0.96 z M 34.8,-0.96 L 34.32,-0.96 L 34.32,-0.48 L 34.8,-0.48 L 34.8,-0.96 z M 35.76,-0.96 L 35.28,-0.96 L 35.28,-0.48 L 35.76,-0.48 L 35.76,-0.96 z M 5.52,-4.8 L 4.8,-4.8 L 4.56,-4.08 L 3.84,-4.08 L 3.6,-4.8 L 3.12,-4.8 L 3.84,-2.4 L 4.56,-2.4 L 5.52,-4.8 z M 4.56,-3.84 L 4.08,-2.88 L 3.84,-3.84 L 4.56,-3.84 z M 7.2,-3.84 L 7.68,-4.08 C 7.012,-4.645 7.002,-5.298 6,-4.32 C 4.936,-3.526 5.872,-2.497 6.72,-2.16 L 7.2,-2.4 L 7.68,-2.88 L 7.2,-3.12 L 7.2,-2.88 L 6.96,-2.88 L 6.96,-2.64 L 6.48,-2.64 L 6,-3.12 L 6,-3.84 L 6.48,-4.32 L 6.96,-4.32 L 7.2,-4.08 L 7.2,-3.84 z M 8.64,-4.8 L 8.64,-2.64 L 7.92,-2.64 L 7.92,-2.4 L 9.84,-2.4 L 9.84,-2.64 L 9.12,-2.64 L 9.12,-4.8 L 8.64,-4.8 z M 10.56,-4.8 L 10.08,-4.8 L 10.08,-2.4 L 10.56,-2.4 L 10.56,-4.8 z M 11.76,-4.8 L 10.8,-2.4 L 11.28,-2.4 L 12,-4.08 L 12.48,-2.4 L 12.96,-2.4 L 12.24,-4.8 L 11.76,-4.8 z M 13.68,-4.8 L 13.2,-4.8 L 13.2,-2.4 L 13.68,-2.4 L 13.68,-4.8 z M 14.64,-4.8 L 14.64,-2.64 L 13.92,-2.64 L 13.92,-2.4 L 15.84,-2.4 L 15.84,-2.64 L 15.12,-2.64 L 15.12,-4.8 L 14.64,-4.8 z M 16.8,-4.8 L 16.8,-3.6 L 16.08,-2.4 L 16.56,-2.4 L 17.04,-3.36 L 17.76,-2.4 L 18.24,-2.4 L 17.28,-3.6 L 17.28,-4.8 L 16.8,-4.8 z M 19.68,-4.8 L 19.2,-4.8 L 19.2,-4.32 L 19.68,-4.32 L 19.68,-4.8 z M 20.64,-4.8 L 20.16,-4.8 L 20.16,-4.32 L 20.64,-4.32 L 20.64,-4.8 z M 21.6,-4.8 L 21.12,-4.8 L 21.12,-4.32 L 21.6,-4.32 L 21.6,-4.8 z M 22.56,-4.8 L 22.08,-4.8 L 22.08,-4.32 L 22.56,-4.32 L 22.56,-4.8 z M 23.52,-4.8 L 23.04,-4.8 L 23.04,-4.32 L 23.52,-4.32 L 23.52,-4.8 z M 24.48,-4.8 L 24,-4.8 L 24,-4.32 L 24.48,-4.32 L 24.48,-4.8 z M 25.44,-4.8 L 24.96,-4.8 L 24.96,-4.32 L 25.44,-4.32 L 25.44,-4.8 z M 26.16,-4.8 L 25.68,-4.8 L 25.68,-4.32 L 26.16,-4.32 L 26.16,-4.8 z M 27.12,-4.8 L 26.64,-4.8 L 26.64,-4.32 L 27.12,-4.32 L 27.12,-4.8 z M 28.08,-4.8 L 27.6,-4.8 L 27.6,-4.32 L 28.08,-4.32 L 28.08,-4.8 z M 29.04,-4.8 L 28.56,-4.8 L 28.56,-4.32 L 29.04,-4.32 L 29.04,-4.8 z M 30,-4.8 L 29.52,-4.8 L 29.52,-4.32 L 30,-4.32 L 30,-4.8 z M 30.96,-4.8 L 30.48,-4.8 L 30.48,-4.32 L 30.96,-4.32 L 30.96,-4.8 z"
         style="fill:#1f1a17;fill-opacity:1;fill-rule:evenodd;stroke:none"
         id="path461" />
    </g>
    <g
       id="g463"
       transform="matrix(1.25,0,0,-1.25,358.10893,-123.08246)">
      <path
         d="M 0,0 L 0,1.92 L -0.72,1.92 L -0.72,2.16 L 0.96,2.16 L 0.96,1.92 L 0.48,1.92 L 0.48,0 L 0,0 z M 1.44,0 L 1.44,2.16 L 2.88,2.16 L 3.12,1.92 L 3.12,1.44 L 2.64,0.96 L 3.12,0.48 L 3.36,0 L 2.64,0 L 2.4,0.48 L 2.4,0.72 L 2.16,0.96 L 1.68,0.96 L 1.68,0 L 1.44,0 z M 1.68,1.44 L 2.64,1.44 L 2.64,1.68 L 2.4,1.92 L 1.68,1.92 L 1.68,1.44 z M 5.52,0 L 5.04,0 L 4.8,0.48 L 3.84,0.48 L 3.84,0 L 3.36,0 L 4.08,2.16 L 4.56,2.16 L 5.52,0 z M 4.56,0.96 L 4.32,1.68 L 4.08,0.96 L 4.56,0.96 z M 5.76,0 L 5.76,2.16 L 6,2.16 L 6.96,0.72 L 6.96,2.16 L 7.44,2.16 L 7.44,0 L 6.96,0 L 6,1.44 L 6,0 L 5.76,0 z M 7.68,0.72 L 8.16,0.72 L 8.4,0.48 L 9.12,0.48 L 9.12,0.72 L 8.88,0.72 L 8.88,0.96 L 8.4,0.96 L 8.16,1.2 L 7.92,1.2 L 7.92,2.16 L 9.12,2.16 L 9.36,1.92 L 9.36,1.68 L 8.88,1.68 L 8.88,1.92 L 8.4,1.92 L 8.16,1.68 L 8.4,1.68 L 8.4,1.44 L 8.88,1.44 L 9.12,1.2 L 9.36,1.2 L 9.36,0.24 L 9.12,0.24 L 8.88,0 L 8.16,0 L 7.92,0.24 L 7.92,0.48 L 7.68,0.72 z M 9.84,0 L 9.84,2.16 L 11.28,2.16 L 11.28,1.92 L 11.52,1.92 L 11.52,1.2 L 11.28,1.2 L 11.28,0.96 L 10.32,0.96 L 10.32,0 L 9.84,0 z M 10.32,1.92 L 10.32,1.2 L 10.8,1.2 L 11.04,1.44 L 11.04,1.68 L 10.8,1.92 L 10.32,1.92 z M 11.76,1.2 L 11.76,1.68 L 12.24,2.16 L 12.48,2.16 C 13.375,2.312 13.546,1.917 13.92,1.2 L 13.44,0.24 L 13.2,0.24 L 12.72,0 L 12.48,0.24 L 12,0.24 L 11.76,0.72 L 11.76,1.2 z M 12.24,1.2 L 12.24,0.72 L 12.48,0.72 L 12.48,0.48 L 12.96,0.48 L 13.2,0.72 L 13.44,0.72 L 13.44,1.44 L 12.96,1.92 L 12.48,1.92 L 12.48,1.68 L 12.24,1.44 L 12.24,1.2 z M 14.16,0 L 14.16,2.16 L 15.84,2.16 L 15.84,1.2 L 15.6,1.2 L 15.36,0.96 L 15.6,0.96 L 15.6,0.72 L 15.84,0.48 L 16.08,0 L 15.6,0 L 15.36,0.48 L 15.12,0.72 L 15.12,0.96 L 14.64,0.96 L 14.64,0 L 14.16,0 z M 14.64,1.44 L 15.36,1.44 L 15.6,1.68 L 15.36,1.68 L 15.36,1.92 L 14.64,1.92 L 14.64,1.44 z M 16.8,0 L 16.8,1.92 L 16.08,1.92 L 16.08,2.16 L 18,2.16 L 18,1.92 L 17.28,1.92 L 17.28,0 L 16.8,0 z M 4.32,-2.88 L 3.84,-2.88 L 3.84,-0.72 L 4.32,-0.72 L 4.32,-2.88 z M 4.8,-2.88 L 4.8,-0.72 L 5.04,-0.72 L 6,-2.16 L 6,-0.72 L 6.48,-0.72 L 6.48,-2.88 L 6,-2.88 L 5.04,-1.68 L 5.04,-2.88 L 4.8,-2.88 z M 6.96,-0.72 L 7.68,-0.72 L 7.92,-0.96 L 8.4,-0.96 L 8.64,-1.2 L 8.64,-2.64 L 8.4,-2.88 L 6.96,-2.88 L 6.96,-0.72 z M 7.44,-1.2 L 7.44,-2.64 L 7.92,-2.64 L 8.16,-2.4 L 8.16,-1.2 L 7.44,-1.2 z M 9.12,-2.88 L 9.12,-0.72 L 10.56,-0.72 L 10.56,-1.2 L 9.6,-1.2 L 9.6,-1.68 L 10.56,-1.68 L 10.56,-1.92 L 9.6,-1.92 L 9.6,-2.64 L 10.8,-2.64 L 10.8,-2.88 L 9.12,-2.88 z M 10.8,-2.88 L 11.52,-1.92 L 10.8,-0.72 L 11.52,-0.72 L 11.76,-1.44 L 12.24,-0.72 L 12.72,-0.72 L 12,-1.92 L 12.96,-2.88 L 12.24,-2.88 L 11.76,-2.16 L 11.28,-2.88 L 10.8,-2.88"
         style="fill:#1f1a17;fill-opacity:1;fill-rule:evenodd;stroke:none"
         id="path465" />
    </g>
    <g
       id="g467"
       transform="matrix(1.25,0,0,-1.25,354.50893,-168.30746)">
      <path
         d="M 0,0 L 0.24,1.68 L 0.48,3.36 L 0.96,4.8 L 1.68,6.24 L 2.64,7.2 L 3.6,8.4 L 4.8,9.36 L 6.24,10.32 L 10.08,3.84 L 9.12,3.12 L 8.4,2.16 L 8.16,1.2 L 7.92,0 L 0,0"
         style="fill:#1f1a17;fill-opacity:1;fill-rule:evenodd;stroke:none"
         id="path469" />
    </g>
    <g
       id="g471"
       transform="matrix(1.25,0,0,-1.25,354.50893,-168.30746)">
      <path
         d="M 0,0 L 0.24,1.68 L 0.48,3.36 L 0.96,4.8 L 1.68,6.24 L 2.64,7.2 L 3.6,8.4 L 4.8,9.36 L 6.24,10.32 L 10.08,3.84 L 9.12,3.12 L 8.4,2.16 L 8.16,1.2 L 7.92,0 L 0,0"
         style="fill:none;stroke:#1f1a17;stroke-width:0.23999999;stroke-linecap:round;stroke-linejoin:round;stroke-miterlimit:10;stroke-dasharray:none;stroke-opacity:1"
         id="path473" />
    </g>
    <g
       id="g475"
       transform="matrix(1.25,0,0,-1.25,376.70893,-181.20746)">
      <path
         d="M 0,0 L 1.44,-0.96 L 2.64,-2.16 L 3.84,-3.12 L 4.56,-4.32 L 6,-8.64 L 6,-10.32 L -1.44,-10.32 L -1.68,-9.12 L -2.16,-8.16 L -2.88,-7.2 L -3.84,-6.48 L 0,0"
         style="fill:#1f1a17;fill-opacity:1;fill-rule:evenodd;stroke:none"
         id="path477" />
    </g>
    <g
       id="g479"
       transform="matrix(1.25,0,0,-1.25,376.70893,-181.20746)">
      <path
         d="M 0,0 L 1.44,-0.96 L 2.64,-2.16 L 3.84,-3.12 L 4.56,-4.32 L 6,-8.64 L 6,-10.32 L -1.44,-10.32 L -1.68,-9.12 L -2.16,-8.16 L -2.88,-7.2 L -3.84,-6.48 L 0,0"
         style="fill:none;stroke:#1f1a17;stroke-width:0.23999999;stroke-linecap:round;stroke-linejoin:round;stroke-miterlimit:10;stroke-dasharray:none;stroke-opacity:1"
         id="path481" />
    </g>
    <g
       id="g483"
       transform="matrix(1.25,0,0,-1.25,377.00893,-155.48246)">
      <path
         d="M 0,0 C -5.069,-2.122 -7.41,-2.268 -12.24,0.24 L -8.4,6.66 L -7.44,6.18 L -6.24,6.18 L -5.04,6.42 L -4.08,6.66 L 0,0"
         style="fill:#1f1a17;fill-opacity:1;fill-rule:evenodd;stroke:none"
         id="path485" />
    </g>
    <g
       id="g487"
       transform="matrix(1.25,0,0,-1.25,377.00893,-155.48246)">
      <path
         d="M 0,0 C -5.069,-2.122 -7.41,-2.268 -12.24,0.24 L -8.4,6.66 L -7.44,6.18 L -6.24,6.18 L -5.04,6.42 L -4.08,6.66 L 0,0 z"
         style="fill:none;stroke:#1f1a17;stroke-width:0.23999999;stroke-linecap:round;stroke-linejoin:round;stroke-miterlimit:10;stroke-dasharray:none;stroke-opacity:1"
         id="path489" />
    </g>
    <g
       id="g491"
       transform="matrix(1.25,0,0,-1.25,369.50893,-172.20746)">
      <path
         d="M 0,0 C 4.188,-0.296 4.188,-5.943 0,-6.24 C -4.173,-6.385 -4.173,0.146 0,0"
         style="fill:#1f1a17;fill-opacity:1;fill-rule:evenodd;stroke:none"
         id="path493" />
    </g>
    <g
       id="g495"
       transform="matrix(1.25,0,0,-1.25,369.50893,-172.20746)">
      <path
         d="M 0,0 C 4.188,-0.296 4.188,-5.943 0,-6.24 C -4.173,-6.385 -4.173,0.146 0,0 z"
         style="fill:none;stroke:#1f1a17;stroke-width:0.23999999;stroke-linecap:round;stroke-linejoin:round;stroke-miterlimit:10;stroke-dasharray:none;stroke-opacity:1"
         id="path497" />
    </g>
    <path
       d="M 390.50893,-141.68246 L 392.30893,-141.68246 L 392.30893,-148.28246 L 390.50893,-148.28246 L 390.50893,-141.68246 z"
       style="fill:#da251d;fill-opacity:1;fill-rule:nonzero;stroke:none"
       id="path499" />
    <path
       d="M 393.50893,-141.68246 L 395.30893,-141.68246 L 395.30893,-148.28246 L 393.50893,-148.28246 L 393.50893,-141.68246 z"
       style="fill:#da251d;fill-opacity:1;fill-rule:nonzero;stroke:none"
       id="path501" />
    <path
       d="M 387.50893,-141.68246 L 389.30893,-141.68246 L 389.30893,-148.28246 L 387.50893,-148.28246 L 387.50893,-141.68246 z"
       style="fill:#da251d;fill-opacity:1;fill-rule:nonzero;stroke:none"
       id="path503" />
  </g>
</svg>
