<?xml version="1.0" encoding="UTF-8" standalone="no"?>
<!-- Created with Inkscape (http://www.inkscape.org/) -->
<svg
   xmlns:dc="http://purl.org/dc/elements/1.1/"
   xmlns:cc="http://creativecommons.org/ns#"
   xmlns:rdf="http://www.w3.org/1999/02/22-rdf-syntax-ns#"
   xmlns:svg="http://www.w3.org/2000/svg"
   xmlns="http://www.w3.org/2000/svg"
   xmlns:sodipodi="http://sodipodi.sourceforge.net/DTD/sodipodi-0.dtd"
   xmlns:inkscape="http://www.inkscape.org/namespaces/inkscape"
   width="247.925"
   height="217.925"
   id="svg2470"
   sodipodi:version="0.32"
   inkscape:version="0.46"
   version="1.0"
   sodipodi:docname="ADR_hot.svg"
   inkscape:output_extension="org.inkscape.output.svg.inkscape">
  <defs
     id="defs2472">
    <inkscape:perspective
       sodipodi:type="inkscape:persp3d"
       inkscape:vp_x="0 : 526.18109 : 1"
       inkscape:vp_y="0 : 1000 : 0"
       inkscape:vp_z="744.09448 : 526.18109 : 1"
       inkscape:persp3d-origin="372.04724 : 350.78739 : 1"
       id="perspective2478" />
  </defs>
  <sodipodi:namedview
     id="base"
     pagecolor="#ffffff"
     bordercolor="#666666"
     borderopacity="1.0"
     inkscape:pageopacity="0.0"
     inkscape:pageshadow="2"
     inkscape:zoom="0.35"
     inkscape:cx="375"
     inkscape:cy="520"
     inkscape:document-units="px"
     inkscape:current-layer="layer1"
     showgrid="false"
     inkscape:window-width="640"
     inkscape:window-height="675"
     inkscape:window-x="44"
     inkscape:window-y="44" />
  <metadata
     id="metadata2475">
    <rdf:RDF>
      <cc:Work
         rdf:about="">
        <dc:format>image/svg+xml</dc:format>
        <dc:type
           rdf:resource="http://purl.org/dc/dcmitype/StillImage" />
      </cc:Work>
    </rdf:RDF>
  </metadata>
  <g
     inkscape:label="Calque 1"
     inkscape:groupmode="layer"
     id="layer1"
     transform="translate(-784.60893,-454.82825)">
    <g
       id="g83"
       transform="matrix(1.25,0,0,-1.25,825.17143,648.99075)">
      <path
         d="M 0,0 L 134.22,0 L 134.64,0.24 L 135.42,0.42 L 137.34,2.16 L 138.06,3.36 L 138.54,4.8 L 138.54,6.42 L 137.82,8.16 L 134.94,12.96 L 131.82,18.48 L 127.98,24.96 C 115.466,46.597 102.654,68.063 90.24,89.76 L 85.74,97.44 L 81.42,104.88 L 77.34,111.84 L 73.74,118.08 L 70.62,123.36 L 68.94,125.28 L 67.02,126.24 L 65.76,126.24 L 64.8,125.82 L 63.84,125.04 L 62.94,123.84 L 62.64,123.36 L 62.16,122.4 L 61.2,121.2 L 60.24,119.52 L 59.04,117.36 L 57.6,114.72 L 55.98,112.08 L 54,108.96 L 49.98,101.76 L 45.36,93.84 L 40.38,85.2 L 34.8,76.08 L 23.76,56.88 L 18.24,47.52 L 12.96,38.4 L 7.98,29.76 L 3.36,21.84 L -0.66,14.64 L -4.08,8.82 L -5.28,6.24 L -5.04,3.36 L -4.26,2.16 L -3.36,0.96 L -1.86,0.24 L 0,0 z M -17.28,-18.96 L 151.26,-18.96 L 154.86,-18.48 L 158.22,-17.28 L 161.34,-15.18 L 163.44,-12.24 L 165.18,-8.88 L 165.84,-5.04 L 165.42,-0.96 L 163.44,3.36 L 159.42,10.32 L 154.86,18 L 149.82,26.4 L 144.78,35.28 L 139.26,44.64 L 133.44,54.24 L 121.98,74.16 L 110.22,94.32 L 98.94,113.76 L 93.6,123.12 L 88.62,132 L 83.58,140.22 L 79.2,147.84 L 76.8,151.02 L 73.74,153.42 L 70.62,154.8 L 67.02,155.28 L 63.36,155.04 L 60,153.6 L 56.94,151.2 L 54,147.84 L 50.4,141.84 L 46.14,134.64 L 41.58,126.72 L 36.54,118.08 L 30.96,108.72 L 25.2,99.12 L 13.44,78.72 L 1.2,58.08 L -10.56,37.92 L -16.08,28.56 L -21.06,19.44 L -26.16,11.04 L -30.48,3.6 L -31.44,1.2 L -31.86,-0.96 L -32.4,-5.28 L -31.44,-9.18 L -29.76,-12.24 L -27.36,-14.88 L -24.24,-17.04 L -20.88,-18.48 L -17.28,-18.96 z"
         style="fill:#ff0000;fill-opacity:1;fill-rule:evenodd;stroke:#ff0000;stroke-width:0.06;stroke-linecap:round;stroke-linejoin:round;stroke-miterlimit:10;stroke-dasharray:none;stroke-opacity:1"
         id="path85" />
    </g>
    <g
       id="g87"
       transform="matrix(1.25,0,0,-1.25,901.67143,599.19075)">
      <path
         d="M 0,0 L 9.6,0 L 9.6,3.12 L 9.36,5.28 L 9.36,43.44 L 0,43.44 L 0,0"
         style="fill:#ff0000;fill-opacity:1;fill-rule:evenodd;stroke:none"
         id="path89" />
    </g>
    <g
       id="g91"
       transform="matrix(1.25,0,0,-1.25,902.94643,598.89075)">
      <path
         d="M 0,0 L -3.42,-1.92 L -6,-4.56 L -7.68,-8.16 C -10.374,-16.451 -3.673,-24.807 4.8,-24.72 L 7.44,-24.48 L 9.84,-23.76 L 12,-22.56 L 13.92,-20.88 C 17.616,-18.157 18.478,-12.313 17.22,-8.16 L 15.6,-4.56 L 12.96,-1.92 L 9.6,0 L 0,0 z"
         style="fill:#ff0000;fill-opacity:1;fill-rule:evenodd;stroke:#ff0000;stroke-width:0.06;stroke-linecap:round;stroke-linejoin:round;stroke-miterlimit:10;stroke-dasharray:none;stroke-opacity:1"
         id="path93" />
    </g>
    <g
       id="g95"
       transform="matrix(1.25,0,0,-1.25,902.34643,607.96575)">
      <path
         d="M 0,0 L 9.84,0 L 9.84,0.3 L 10.02,0.3 L 10.02,0.78 L 9.84,1.02 L 9.84,58.86 L 9.6,59.34 L 9.6,60.54 L 9.3,61.5 L 8.82,62.46 L 8.64,62.7 L 8.1,63.18 L 7.62,63.42 L 7.44,63.9 L 6.66,64.38 L 6.42,64.38 L 6.24,64.62 L 5.46,64.86 L 3.3,64.86 L 2.58,64.62 L 2.4,64.38 L 1.38,63.9 L 0,62.46 L -0.3,61.74 L -0.3,61.26 L -0.54,60.54 L -0.54,0.54 L 0,0 L 0,1.02 L 0.42,0.54 L 0.42,60.54 L 0.66,61.26 L 0.66,61.74 L 1.86,62.94 L 2.82,63.42 L 3.3,63.9 L 5.46,63.9 L 5.7,63.66 L 6,63.42 L 6.9,63.42 L 7.2,62.94 L 7.62,62.7 L 7.62,62.22 L 7.86,61.98 L 8.4,61.02 L 8.64,60.54 L 8.64,59.34 L 8.82,58.38 L 8.82,58.62 L 8.82,1.02 L 9.06,0.3 L 9.06,0.54 L 9.6,1.02 L 0,1.02 L 0,0"
         style="fill:#ff0000;fill-opacity:1;fill-rule:evenodd;stroke:none"
         id="path97" />
    </g>
  </g>
</svg>
